0,0,Header,1,1,384
1,0,Start_track
1,0,Title_t,"Neuron 1"
1,72,Note_on_c,0,46,83
1,260,Note_on_c,0,53,70
1,448,Note_on_c,0,51,74
1,456,Note_on_c,0,60,83
1,464,Note_off_c,0,53,70
1,632,Note_off_c,0,51,74
1,636,Note_on_c,0,53,83
1,644,Note_on_c,0,62,83
1,648,Note_off_c,0,60,83
1,1532,Note_off_c,0,46,83
1,1596,Note_off_c,0,53,83
1,1600,Note_on_c,0,46,85
1,1624,Note_off_c,0,62,83
1,1768,Note_off_c,0,46,85
1,1792,Note_on_c,0,46,74
1,1980,Note_on_c,0,62,85
1,1984,Note_on_c,0,53,74
1,2172,Note_on_c,0,63,92
1,2176,Note_off_c,0,53,74
1,2176,Note_off_c,0,62,85
1,2176,Note_on_c,0,55,83
1,2564,Note_on_c,0,51,74
1,2564,Note_on_c,0,60,83
1,2588,Note_off_c,0,55,83
1,3120,Note_off_c,0,46,74
1,3136,Note_off_c,0,60,83
1,3144,Note_on_c,0,46,83
1,3148,Note_off_c,0,51,74
1,3176,Note_off_c,0,63,92
1,3332,Note_on_c,0,53,70
1,3520,Note_on_c,0,51,74
1,3528,Note_on_c,0,60,83
1,3536,Note_off_c,0,53,70
1,3704,Note_off_c,0,51,74
1,3708,Note_on_c,0,53,83
1,3716,Note_on_c,0,62,83
1,3720,Note_off_c,0,60,83
1,4604,Note_off_c,0,46,83
1,4668,Note_off_c,0,53,83
1,4672,Note_on_c,0,46,85
1,4696,Note_off_c,0,62,83
1,4840,Note_off_c,0,46,85
1,4864,Note_on_c,0,46,74
1,5052,Note_on_c,0,62,85
1,5056,Note_on_c,0,53,74
1,5244,Note_on_c,0,63,92
1,5248,Note_off_c,0,53,74
1,5248,Note_off_c,0,62,85
1,5248,Note_on_c,0,55,83
1,5636,Note_on_c,0,51,74
1,5636,Note_on_c,0,60,83
1,5660,Note_off_c,0,55,83
1,6188,Note_off_c,0,63,92
1,6192,Note_off_c,0,46,74
1,6208,Note_off_c,0,60,83
1,6216,Note_on_c,0,46,92
1,6216,Note_on_c,0,53,83
1,6220,Note_off_c,0,51,74
1,6224,Note_on_c,0,62,92
1,6708,Note_off_c,0,53,83
1,6760,Note_off_c,0,62,92
1,6780,Note_on_c,0,63,83
1,6784,Note_on_c,0,55,92
1,7320,Note_off_c,0,55,92
1,7364,Note_on_c,0,65,92
1,7364,Note_on_c,0,57,92
1,7376,Note_off_c,0,63,83
1,7652,Note_off_c,0,46,92
1,7712,Note_off_c,0,57,92
1,7732,Note_off_c,0,65,92
1,7744,Note_on_c,0,46,87
1,7744,Note_on_c,0,62,83
1,7756,Note_on_c,0,53,83
1,8320,Note_on_c,0,65,66
1,8508,Note_on_c,0,74,83
1,8700,Note_on_c,0,63,74
1,8772,Note_off_c,0,65,66
1,8820,Note_off_c,0,74,83
1,8892,Note_on_c,0,72,83
1,9236,Note_off_c,0,53,83
1,9248,Note_off_c,0,46,87
1,9264,Note_off_c,0,62,83
1,9272,Note_off_c,0,63,74
1,9288,Note_on_c,0,46,92
1,9288,Note_on_c,0,53,83
1,9288,Note_on_c,0,65,70
1,9296,Note_on_c,0,62,92
1,9304,Note_off_c,0,72,83
1,9780,Note_off_c,0,53,83
1,9832,Note_off_c,0,62,92
1,9836,Note_off_c,0,65,70
1,9852,Note_on_c,0,63,83
1,9856,Note_on_c,0,55,92
1,10224,Note_on_c,0,62,66
1,10228,Note_off_c,0,63,83
1,10424,Note_on_c,0,58,66
1,10488,Note_off_c,0,62,66
1,10784,Note_off_c,0,46,92
1,10796,Note_off_c,0,58,66
1,10800,Note_off_c,0,55,92
1,10816,Note_on_c,0,58,80
1,10816,Note_on_c,0,62,92
1,10816,Note_on_c,0,43,92
1,10824,Note_on_c,0,51,80
1,11568,Note_off_c,0,51,80
1,11588,Note_off_c,0,43,92
1,11588,Note_on_c,0,45,92
1,11588,Note_on_c,0,60,80
1,11588,Note_on_c,0,53,74
1,11592,Note_off_c,0,62,92
1,11620,Note_off_c,0,58,80
1,12328,Note_off_c,0,53,74
1,12344,Note_off_c,0,45,92
1,12352,Note_off_c,0,60,80
1,12360,Note_on_c,0,60,88
1,12364,Note_on_c,0,39,92
1,12364,Note_on_c,0,55,70
1,12852,Note_off_c,0,55,70
1,12920,Note_on_c,0,62,91
1,12924,Note_on_c,0,55,92
1,12932,Note_off_c,0,60,88
1,13076,Note_off_c,0,39,92
1,13128,Note_on_c,0,38,92
1,13284,Note_off_c,0,55,92
1,13304,Note_on_c,0,54,85
1,13836,Note_off_c,0,62,91
1,13852,Note_off_c,0,54,85
1,13884,Note_off_c,0,38,92
1,13900,Note_on_c,0,43,92
1,13900,Note_on_c,0,60,89
1,13900,Note_on_c,0,62,77
1,14244,Note_off_c,0,60,89
1,14272,Note_on_c,0,58,88
1,14592,Note_off_c,0,62,77
1,14612,Note_off_c,0,58,88
1,14612,Note_off_c,0,43,92
1,14652,Note_on_c,0,62,80
1,14652,Note_on_c,0,41,91
1,14652,Note_on_c,0,57,92
1,15000,Note_off_c,0,57,92
1,15036,Note_on_c,0,58,88
1,15388,Note_off_c,0,58,88
1,15428,Note_off_c,0,41,91
1,15432,Note_on_c,0,58,86
1,15436,Note_on_c,0,39,85
1,15436,Note_on_c,0,55,83
1,15440,Note_off_c,0,62,80
1,15904,Note_off_c,0,39,85
1,16012,Note_on_c,0,39,74
1,16048,Note_off_c,0,55,83
1,16196,Note_on_c,0,55,70
1,16204,Note_off_c,0,58,86
1,16380,Note_on_c,0,58,74
1,16584,Note_on_c,0,63,92
1,16732,Note_off_c,0,63,92
1,16736,Note_off_c,0,55,70
1,16740,Note_off_c,0,58,74
1,16772,Note_on_c,0,58,92
1,16772,Note_on_c,0,62,101
1,16784,Note_on_c,0,53,83
1,16788,Note_off_c,0,39,74
1,16968,Note_on_c,0,46,92
1,17484,Note_off_c,0,53,83
1,17536,Note_on_c,0,53,74
1,17536,Note_on_c,0,65,74
1,17732,Note_on_c,0,74,83
1,17748,Note_off_c,0,58,92
1,17924,Note_on_c,0,63,82
1,17928,Note_off_c,0,65,74
1,17932,Note_off_c,0,53,74
1,17936,Note_on_c,0,58,54
1,18112,Note_on_c,0,72,83
1,18116,Note_off_c,0,58,54
1,18116,Note_on_c,0,53,66
1,18124,Note_off_c,0,74,83
1,18224,Note_off_c,0,62,101
1,18304,Note_on_c,0,62,83
1,18308,Note_off_c,0,63,82
1,18372,Note_off_c,0,46,92
1,18484,Note_off_c,0,53,66
1,18496,Note_off_c,0,62,83
1,18496,Note_off_c,0,72,83
1,18496,Note_on_c,0,70,88
1,18504,Note_on_c,0,46,92
1,18504,Note_on_c,0,53,83
1,18512,Note_on_c,0,62,92
1,18996,Note_off_c,0,53,83
1,19048,Note_off_c,0,62,92
1,19068,Note_on_c,0,63,83
1,19072,Note_on_c,0,55,92
1,19424,Note_off_c,0,63,83
1,19452,Note_on_c,0,62,79
1,19608,Note_off_c,0,55,92
1,19640,Note_on_c,0,58,79
1,19760,Note_off_c,0,70,88
1,19828,Note_on_c,0,53,85
1,19856,Note_off_c,0,58,79
1,19940,Note_off_c,0,46,92
1,20032,Note_on_c,0,46,87
1,20404,Note_on_c,0,65,70
1,20408,Note_on_c,0,72,70
1,20604,Note_on_c,0,67,70
1,20608,Note_off_c,0,65,70
1,20608,Note_on_c,0,75,92
1,20636,Note_off_c,0,72,70
1,20992,Note_on_c,0,65,66
1,20996,Note_on_c,0,74,83
1,21004,Note_off_c,0,67,70
1,21024,Note_off_c,0,75,92
1,21156,Note_off_c,0,62,79
1,21188,Note_on_c,0,62,66
1,21196,Note_on_c,0,70,74
1,21204,Note_off_c,0,65,66
1,21208,Note_off_c,0,74,83
1,21368,Note_on_c,0,65,77
1,21388,Note_off_c,0,70,74
1,21528,Note_off_c,0,53,85
1,21536,Note_off_c,0,46,87
1,21544,Note_off_c,0,65,77
1,21564,Note_off_c,0,62,66
1,21572,Note_on_c,0,65,62
1,21576,Note_on_c,0,46,92
1,21576,Note_on_c,0,53,83
1,21576,Note_on_c,0,62,92
1,22068,Note_off_c,0,53,83
1,22112,Note_off_c,0,62,92
1,22148,Note_on_c,0,58,63
1,22148,Note_on_c,0,63,83
1,22148,Note_on_c,0,55,92
1,22160,Note_off_c,0,65,62
1,22524,Note_off_c,0,63,83
1,22532,Note_off_c,0,55,92
1,22532,Note_off_c,0,58,63
1,22532,Note_on_c,0,62,82
1,22724,Note_on_c,0,58,82
1,22892,Note_off_c,0,46,92
1,22908,Note_on_c,0,46,74
1,22908,Note_on_c,0,53,68
1,23056,Note_off_c,0,62,82
1,23100,Note_off_c,0,46,74
1,23104,Note_on_c,0,43,92
1,23104,Note_on_c,0,55,70
1,23104,Note_on_c,0,62,83
1,23112,Note_off_c,0,58,82
1,23116,Note_off_c,0,53,68
1,23304,Note_on_c,0,51,79
1,23492,Note_on_c,0,58,70
1,23680,Note_on_c,0,60,83
1,23712,Note_off_c,0,62,83
1,23840,Note_off_c,0,51,79
1,23848,Note_off_c,0,60,83
1,23860,Note_off_c,0,55,70
1,23872,Note_on_c,0,57,66
1,23872,Note_on_c,0,60,88
1,23876,Note_off_c,0,43,92
1,23876,Note_on_c,0,45,92
1,23900,Note_off_c,0,58,70
1,24068,Note_on_c,0,53,74
1,24264,Note_off_c,0,53,74
1,24268,Note_on_c,0,65,83
1,24452,Note_on_c,0,53,74
1,24604,Note_off_c,0,60,88
1,24628,Note_off_c,0,57,66
1,24632,Note_off_c,0,45,92
1,24648,Note_on_c,0,60,88
1,24652,Note_on_c,0,39,92
1,24652,Note_on_c,0,55,70
1,24676,Note_off_c,0,53,74
1,24688,Note_off_c,0,65,83
1,25140,Note_off_c,0,55,70
1,25208,Note_on_c,0,62,91
1,25220,Note_off_c,0,60,88
1,25364,Note_off_c,0,39,92
1,25400,Note_on_c,0,55,84
1,25416,Note_on_c,0,38,92
1,25564,Note_off_c,0,55,84
1,25572,Note_on_c,0,54,62
1,25924,Note_off_c,0,54,62
1,25968,Note_on_c,0,54,46
1,25992,Note_on_c,0,57,58
1,26128,Note_off_c,0,62,91
1,26152,Note_off_c,0,54,46
1,26164,Note_off_c,0,57,58
1,26172,Note_off_c,0,38,92
1,26180,Note_on_c,0,62,82
1,26184,Note_on_c,0,60,74
1,26188,Note_on_c,0,43,92
1,26188,Note_on_c,0,55,74
1,26348,Note_on_c,0,58,58
1,26352,Note_off_c,0,60,74
1,26856,Note_off_c,0,62,82
1,26864,Note_off_c,0,55,74
1,26900,Note_off_c,0,43,92
1,26904,Note_off_c,0,58,58
1,26936,Note_on_c,0,58,70
1,26936,Note_on_c,0,62,74
1,26940,Note_on_c,0,55,83
1,26940,Note_on_c,0,41,91
1,27320,Note_on_c,0,67,82
1,27684,Note_off_c,0,67,82
1,27692,Note_off_c,0,58,70
1,27696,Note_off_c,0,62,74
1,27700,Note_off_c,0,55,83
1,27712,Note_on_c,0,67,87
1,27716,Note_off_c,0,41,91
1,27716,Note_on_c,0,58,86
1,27720,Note_on_c,0,63,76
1,27724,Note_on_c,0,39,85
1,28092,Note_off_c,0,58,86
1,28104,Note_on_c,0,55,66
1,28192,Note_off_c,0,39,85
1,28240,Note_off_c,0,63,76
1,28276,Note_off_c,0,67,87
1,28292,Note_off_c,0,55,66
1,28292,Note_on_c,0,58,72
1,28296,Note_on_c,0,63,79
1,28296,Note_on_c,0,70,83
1,28300,Note_on_c,0,39,74
1,28448,Note_off_c,0,58,72
1,28460,Note_off_c,0,70,83
1,28464,Note_off_c,0,63,79
1,28484,Note_on_c,0,55,83
1,28484,Note_on_c,0,58,50
1,28644,Note_off_c,0,58,50
1,28644,Note_off_c,0,55,83
1,28668,Note_on_c,0,70,74
1,28668,Note_on_c,0,58,74
1,28676,Note_on_c,0,63,92
1,28676,Note_on_c,0,65,65
1,28840,Note_off_c,0,65,65
1,28840,Note_off_c,0,58,74
1,28844,Note_off_c,0,63,92
1,28844,Note_off_c,0,70,74
1,28856,Note_on_c,0,58,54
1,28856,Note_on_c,0,55,66
1,29040,Note_off_c,0,55,66
1,29040,Note_off_c,0,58,54
1,29060,Note_on_c,0,58,92
1,29060,Note_on_c,0,62,101
1,29068,Note_on_c,0,53,83
1,29076,Note_off_c,0,39,74
1,29256,Note_on_c,0,46,92
1,29388,Note_off_c,0,53,83
1,29440,Note_on_c,0,53,70
1,29632,Note_on_c,0,60,83
1,29640,Note_off_c,0,62,101
1,29828,Note_on_c,0,62,74
1,30000,Note_off_c,0,60,83
1,30000,Note_off_c,0,58,92
1,30008,Note_off_c,0,62,74
1,30016,Note_on_c,0,58,70
1,30024,Note_on_c,0,55,83
1,30024,Note_on_c,0,63,86
1,30032,Note_off_c,0,53,70
1,30368,Note_off_c,0,63,86
1,30384,Note_off_c,0,55,83
1,30384,Note_off_c,0,58,70
1,30404,Note_on_c,0,58,66
1,30408,Note_on_c,0,55,74
1,30408,Note_on_c,0,63,101
1,30660,Note_off_c,0,46,92
1,30776,Note_off_c,0,55,74
1,30780,Note_off_c,0,63,101
1,30788,Note_off_c,0,58,66
1,30792,Note_on_c,0,57,101
1,30792,Note_on_c,0,53,92
1,30796,Note_on_c,0,41,95
1,31332,Note_off_c,0,53,92
1,31352,Note_off_c,0,41,95
1,31356,Note_on_c,0,43,83
1,31368,Note_on_c,0,58,74
1,31372,Note_on_c,0,55,83
1,31380,Note_off_c,0,57,101
1,31532,Note_off_c,0,55,83
1,31552,Note_on_c,0,45,101
1,31556,Note_on_c,0,57,92
1,31560,Note_on_c,0,60,101
1,31572,Note_off_c,0,43,83
1,31584,Note_off_c,0,58,74
1,31920,Note_off_c,0,60,101
1,31928,Note_off_c,0,57,92
1,31940,Note_on_c,0,53,83
1,32124,Note_off_c,0,53,83
1,32124,Note_on_c,0,63,83
1,32128,Note_on_c,0,60,92
1,32300,Note_off_c,0,45,101
1,32304,Note_off_c,0,60,92
1,32308,Note_off_c,0,63,83
1,32316,Note_on_c,0,62,92
1,32320,Note_on_c,0,46,92
1,32320,Note_on_c,0,58,83
1,32696,Note_on_c,0,53,58
1,32808,Note_off_c,0,62,92
1,32888,Note_on_c,0,62,97
1,33100,Note_off_c,0,58,83
1,33216,Note_off_c,0,53,58
1,33280,Note_on_c,0,53,74
1,33472,Note_on_c,0,67,97
1,33548,Note_off_c,0,62,97
1,33828,Note_off_c,0,67,97
1,33832,Note_off_c,0,53,74
1,33840,Note_off_c,0,46,92
1,33860,Note_on_c,0,65,98
1,33860,Note_on_c,0,60,83
1,33864,Note_on_c,0,45,91
1,34048,Note_on_c,0,53,66
1,34076,Note_off_c,0,60,83
1,34228,Note_off_c,0,53,66
1,34228,Note_on_c,0,60,74
1,34252,Note_off_c,0,65,98
1,34388,Note_off_c,0,60,74
1,34432,Note_on_c,0,60,92
1,34432,Note_on_c,0,63,91
1,34760,Note_off_c,0,60,92
1,34772,Note_off_c,0,63,91
1,34816,Note_on_c,0,53,66
1,34816,Note_on_c,0,60,63
1,34816,Note_on_c,0,62,93
1,35172,Note_off_c,0,60,63
1,35196,Note_on_c,0,58,88
1,35372,Note_off_c,0,53,66
1,35380,Note_off_c,0,62,93
1,35380,Note_off_c,0,45,91
1,35392,Note_on_c,0,62,97
1,35400,Note_on_c,0,53,74
1,35400,Note_on_c,0,46,92
1,35916,Note_off_c,0,58,88
1,35972,Note_on_c,0,58,62
1,36124,Note_off_c,0,62,97
1,36128,Note_off_c,0,53,74
1,36144,Note_off_c,0,46,92
1,36152,Note_on_c,0,38,92
1,36156,Note_on_c,0,53,74
1,36156,Note_on_c,0,62,101
1,36420,Note_on_c,0,63,92
1,36436,Note_off_c,0,62,101
1,36676,Note_on_c,0,65,97
1,36728,Note_off_c,0,63,92
1,36896,Note_off_c,0,58,62
1,36924,Note_off_c,0,53,74
1,36928,Note_on_c,0,39,91
1,36932,Note_off_c,0,38,92
1,36932,Note_on_c,0,60,92
1,36932,Note_on_c,0,69,99
1,36936,Note_off_c,0,65,97
1,37116,Note_on_c,0,67,85
1,37132,Note_off_c,0,60,92
1,37304,Note_on_c,0,60,76
1,37320,Note_off_c,0,67,85
1,37500,Note_on_c,0,65,74
1,37668,Note_off_c,0,39,91
1,37680,Note_off_c,0,65,74
1,37696,Note_on_c,0,38,92
1,37696,Note_on_c,0,58,91
1,37696,Note_on_c,0,65,97
1,37704,Note_off_c,0,60,76
1,37704,Note_off_c,0,69,99
1,37896,Note_on_c,0,53,79
1,37904,Note_off_c,0,58,91
1,38080,Note_on_c,0,58,74
1,38108,Note_off_c,0,65,97
1,38272,Note_on_c,0,65,83
1,38416,Note_off_c,0,53,79
1,38420,Note_off_c,0,38,92
1,38452,Note_off_c,0,58,74
1,38456,Note_off_c,0,65,83
1,38468,Note_on_c,0,39,94
1,38472,Note_on_c,0,65,83
1,38472,Note_on_c,0,69,96
1,38660,Note_on_c,0,58,58
1,38772,Note_off_c,0,69,96
1,38800,Note_off_c,0,65,83
1,38844,Note_on_c,0,70,83
1,38936,Note_off_c,0,58,58
1,39036,Note_on_c,0,65,94
1,39160,Note_off_c,0,39,94
1,39228,Note_on_c,0,38,83
1,39412,Note_on_c,0,58,62
1,39420,Note_off_c,0,70,83
1,39428,Note_off_c,0,65,94
1,39604,Note_on_c,0,65,91
1,39640,Note_off_c,0,58,62
1,39792,Note_on_c,0,58,58
1,39980,Note_off_c,0,58,58
1,39992,Note_on_c,0,43,83
1,40004,Note_off_c,0,38,83
1,40004,Note_on_c,0,58,86
1,40004,Note_on_c,0,62,93
1,40024,Note_off_c,0,65,91
1,40580,Note_on_c,0,53,74
1,40632,Note_off_c,0,62,93
1,40732,Note_off_c,0,58,86
1,40772,Note_on_c,0,40,92
1,40776,Note_on_c,0,55,78
1,40776,Note_on_c,0,60,83
1,40784,Note_off_c,0,43,83
1,40788,Note_off_c,0,53,74
1,41160,Note_on_c,0,52,83
1,41352,Note_off_c,0,40,92
1,41352,Note_on_c,0,40,82
1,41512,Note_off_c,0,40,82
1,41516,Note_off_c,0,55,78
1,41524,Note_off_c,0,52,83
1,41536,Note_on_c,0,58,91
1,41536,Note_on_c,0,41,101
1,41536,Note_on_c,0,51,70
1,41568,Note_off_c,0,60,83
1,41724,Note_on_c,0,53,74
1,41748,Note_off_c,0,58,91
1,41912,Note_on_c,0,60,72
1,42056,Note_off_c,0,53,74
1,42084,Note_off_c,0,60,72
1,42088,Note_off_c,0,51,70
1,42108,Note_on_c,0,62,74
1,42112,Note_on_c,0,53,74
1,42260,Note_off_c,0,62,74
1,42280,Note_off_c,0,53,74
1,42304,Note_on_c,0,63,89
1,42308,Note_on_c,0,55,98
1,42484,Note_off_c,0,41,101
1,42496,Note_on_c,0,36,83
1,42652,Note_off_c,0,55,98
1,42668,Note_off_c,0,63,89
1,42680,Note_off_c,0,36,83
1,42688,Note_on_c,0,39,83
1,42692,Note_on_c,0,58,92
1,42700,Note_on_c,0,67,95
1,42868,Note_on_c,0,36,83
1,42888,Note_off_c,0,39,83
1,43044,Note_off_c,0,58,92
1,43060,Note_off_c,0,67,95
1,43080,Note_off_c,0,36,83
1,43080,Note_on_c,0,57,92
1,43080,Note_on_c,0,65,95
1,43084,Note_on_c,0,41,95
1,43392,Note_off_c,0,57,92
1,43420,Note_off_c,0,65,95
1,43464,Note_on_c,0,57,66
1,43468,Note_on_c,0,60,66
1,43640,Note_off_c,0,41,95
1,43644,Note_on_c,0,43,83
1,43644,Note_on_c,0,53,70
1,43656,Note_off_c,0,57,66
1,43664,Note_off_c,0,60,66
1,43788,Note_off_c,0,53,70
1,43840,Note_on_c,0,45,101
1,43848,Note_on_c,0,57,92
1,43852,Note_on_c,0,60,83
1,43860,Note_off_c,0,43,83
1,44208,Note_off_c,0,60,83
1,44208,Note_off_c,0,57,92
1,44220,Note_on_c,0,60,92
1,44224,Note_on_c,0,63,74
1,44420,Note_on_c,0,53,66
1,44584,Note_off_c,0,53,66
1,44588,Note_off_c,0,45,101
1,44600,Note_off_c,0,63,74
1,44600,Note_off_c,0,60,92
1,44604,Note_on_c,0,62,92
1,44608,Note_on_c,0,46,92
1,44608,Note_on_c,0,58,83
1,44792,Note_on_c,0,53,62
1,44936,Note_off_c,0,62,92
1,44988,Note_on_c,0,62,83
1,45128,Note_off_c,0,46,92
1,45168,Note_off_c,0,58,83
1,45176,Note_on_c,0,58,66
1,45180,Note_on_c,0,65,74
1,45188,Note_on_c,0,46,92
1,45352,Note_off_c,0,58,66
1,45364,Note_off_c,0,53,62
1,45372,Note_on_c,0,58,83
1,45372,Note_on_c,0,70,94
1,45380,Note_off_c,0,62,83
1,45708,Note_off_c,0,58,83
1,45740,Note_off_c,0,70,94
1,45748,Note_off_c,0,65,74
1,45764,Note_on_c,0,58,74
1,45764,Note_on_c,0,67,92
1,46100,Note_off_c,0,46,92
1,46144,Note_off_c,0,67,92
1,46148,Note_on_c,0,65,98
1,46148,Note_on_c,0,57,83
1,46152,Note_on_c,0,41,91
1,46164,Note_off_c,0,58,74
1,46336,Note_on_c,0,53,66
1,46364,Note_off_c,0,57,83
1,46516,Note_off_c,0,53,66
1,46516,Note_on_c,0,60,74
1,46540,Note_off_c,0,65,98
1,46676,Note_off_c,0,60,74
1,46688,Note_off_c,0,41,91
1,46720,Note_on_c,0,42,101
1,46720,Note_on_c,0,60,92
1,46720,Note_on_c,0,63,91
1,47100,Note_off_c,0,63,91
1,47108,Note_off_c,0,60,92
1,47108,Note_on_c,0,62,70
1,47296,Note_on_c,0,54,66
1,47468,Note_off_c,0,42,101
1,47484,Note_on_c,0,57,74
1,47484,Note_on_c,0,45,58
1,47664,Note_off_c,0,45,58
1,47664,Note_off_c,0,62,70
1,47668,Note_off_c,0,57,74
1,47672,Note_on_c,0,43,92
1,47676,Note_off_c,0,54,66
1,47676,Note_on_c,0,50,74
1,47872,Note_on_c,0,57,70
1,48056,Note_on_c,0,58,74
1,48380,Note_off_c,0,50,74
1,48388,Note_off_c,0,57,70
1,48404,Note_off_c,0,58,74
1,48440,Note_on_c,0,46,92
1,48440,Note_on_c,0,58,70
1,48444,Note_on_c,0,62,101
1,48448,Note_off_c,0,43,92
1,48676,Note_off_c,0,58,70
1,48708,Note_on_c,0,60,74
1,48708,Note_on_c,0,63,92
1,48724,Note_off_c,0,62,101
1,48920,Note_off_c,0,60,74
1,48960,Note_on_c,0,62,83
1,48964,Note_on_c,0,65,97
1,49016,Note_off_c,0,63,92
1,49180,Note_off_c,0,62,83
1,49216,Note_on_c,0,39,91
1,49220,Note_off_c,0,46,92
1,49220,Note_on_c,0,60,92
1,49220,Note_on_c,0,69,99
1,49224,Note_off_c,0,65,97
1,49404,Note_on_c,0,67,85
1,49420,Note_off_c,0,60,92
1,49592,Note_on_c,0,60,76
1,49608,Note_off_c,0,67,85
1,49788,Note_on_c,0,65,74
1,49956,Note_off_c,0,39,91
1,49968,Note_off_c,0,65,74
1,49984,Note_on_c,0,38,92
1,49984,Note_on_c,0,58,91
1,49984,Note_on_c,0,65,97
1,49992,Note_off_c,0,60,76
1,49992,Note_off_c,0,69,99
1,50184,Note_on_c,0,57,68
1,50192,Note_off_c,0,58,91
1,50368,Note_on_c,0,58,74
1,50396,Note_off_c,0,65,97
1,50560,Note_on_c,0,65,83
1,50704,Note_off_c,0,57,68
1,50708,Note_off_c,0,38,92
1,50740,Note_off_c,0,58,74
1,50744,Note_off_c,0,65,83
1,50756,Note_on_c,0,39,94
1,50760,Note_on_c,0,65,83
1,50760,Note_on_c,0,69,96
1,50948,Note_on_c,0,58,58
1,51060,Note_off_c,0,69,96
1,51088,Note_off_c,0,65,83
1,51132,Note_on_c,0,70,83
1,51324,Note_on_c,0,65,94
1,51448,Note_off_c,0,39,94
1,51516,Note_on_c,0,38,83
1,51584,Note_off_c,0,58,58
1,51700,Note_on_c,0,58,76
1,52216,Note_off_c,0,65,94
1,52248,Note_off_c,0,58,76
1,52252,Note_off_c,0,70,83
1,52280,Note_on_c,0,43,83
1,52292,Note_off_c,0,38,83
1,52292,Note_on_c,0,58,86
1,52292,Note_on_c,0,62,93
1,52868,Note_on_c,0,53,74
1,52920,Note_off_c,0,62,93
1,53020,Note_off_c,0,58,86
1,53060,Note_on_c,0,40,92
1,53064,Note_on_c,0,60,83
1,53068,Note_on_c,0,55,92
1,53072,Note_off_c,0,43,83
1,53076,Note_off_c,0,53,74
1,53448,Note_on_c,0,52,83
1,53776,Note_off_c,0,55,92
1,53812,Note_off_c,0,52,83
1,53816,Note_off_c,0,40,92
1,53824,Note_on_c,0,63,92
1,53824,Note_on_c,0,44,97
1,53824,Note_on_c,0,55,101
1,53856,Note_off_c,0,60,83
1,54208,Note_on_c,0,62,83
1,54240,Note_off_c,0,63,92
1,54540,Note_off_c,0,55,101
1,54572,Note_off_c,0,44,97
1,54584,Note_off_c,0,62,83
1,54584,Note_on_c,0,60,92
1,54592,Note_on_c,0,53,83
1,54600,Note_on_c,0,41,97
1,54964,Note_off_c,0,53,83
1,54968,Note_on_c,0,58,74
1,54972,Note_on_c,0,51,73
1,55324,Note_off_c,0,58,74
1,55324,Note_off_c,0,60,92
1,55348,Note_off_c,0,41,97
1,55348,Note_on_c,0,46,92
1,55352,Note_off_c,0,51,73
1,55540,Note_on_c,0,53,74
1,55736,Note_on_c,0,60,83
1,55928,Note_on_c,0,62,83
1,56324,Note_on_c,0,65,62
1,56504,Note_on_c,0,72,74
1,56696,Note_on_c,0,74,74
1,57092,Note_on_c,0,77,58
1,57108,Note_off_c,0,65,62
1,57120,Note_off_c,0,72,74
1,57124,Note_off_c,0,74,74
1,57272,Note_on_c,0,84,74
1,57468,Note_on_c,0,86,83
1,58304,Note_off_c,0,77,58
1,58316,Note_off_c,0,86,83
1,58316,Note_off_c,0,84,74
1,58344,Note_off_c,0,53,74
1,58348,Note_off_c,0,46,92
1,58364,Note_off_c,0,62,83
1,58368,Note_off_c,0,60,83
1,58432,Note_on_c,0,73,88
1,58440,Note_on_c,0,49,92
1,58440,Note_on_c,0,56,83
1,58448,Note_on_c,0,65,92
1,58932,Note_off_c,0,56,83
1,58984,Note_off_c,0,65,92
1,59004,Note_on_c,0,66,83
1,59008,Note_on_c,0,58,92
1,59360,Note_off_c,0,66,83
1,59388,Note_on_c,0,65,79
1,59544,Note_off_c,0,58,92
1,59576,Note_on_c,0,61,79
1,59696,Note_off_c,0,73,88
1,59764,Note_on_c,0,56,85
1,59792,Note_off_c,0,61,79
1,59876,Note_off_c,0,49,92
1,59968,Note_on_c,0,49,87
1,60556,Note_on_c,0,68,62
1,60740,Note_on_c,0,77,92
1,60820,Note_off_c,0,68,62
1,60940,Note_on_c,0,66,66
1,61100,Note_off_c,0,77,92
1,61124,Note_off_c,0,65,79
1,61132,Note_on_c,0,75,92
1,61196,Note_off_c,0,66,66
1,61320,Note_on_c,0,65,66
1,61464,Note_off_c,0,56,85
1,61472,Note_off_c,0,49,87
1,61504,Note_off_c,0,65,66
1,61508,Note_on_c,0,68,62
1,61512,Note_on_c,0,49,92
1,61512,Note_on_c,0,56,83
1,61512,Note_on_c,0,65,92
1,61540,Note_off_c,0,75,92
1,62004,Note_off_c,0,56,83
1,62048,Note_off_c,0,65,92
1,62084,Note_on_c,0,61,63
1,62084,Note_on_c,0,66,83
1,62084,Note_on_c,0,58,92
1,62096,Note_off_c,0,68,62
1,62460,Note_off_c,0,66,83
1,62468,Note_off_c,0,58,92
1,62468,Note_off_c,0,61,63
1,62468,Note_on_c,0,65,82
1,62660,Note_on_c,0,61,82
1,62828,Note_off_c,0,49,92
1,62844,Note_on_c,0,49,74
1,62844,Note_on_c,0,56,68
1,62992,Note_off_c,0,65,82
1,63036,Note_off_c,0,49,74
1,63040,Note_on_c,0,46,92
1,63040,Note_on_c,0,58,70
1,63040,Note_on_c,0,65,83
1,63048,Note_off_c,0,61,82
1,63052,Note_off_c,0,56,68
1,63240,Note_on_c,0,54,79
1,63428,Note_on_c,0,61,70
1,63616,Note_on_c,0,63,83
1,63648,Note_off_c,0,65,83
1,63776,Note_off_c,0,54,79
1,63784,Note_off_c,0,63,83
1,63796,Note_off_c,0,58,70
1,63808,Note_on_c,0,60,66
1,63808,Note_on_c,0,63,88
1,63812,Note_off_c,0,46,92
1,63812,Note_on_c,0,48,92
1,63836,Note_off_c,0,61,70
1,64004,Note_on_c,0,56,74
1,64200,Note_off_c,0,56,74
1,64204,Note_on_c,0,68,83
1,64388,Note_on_c,0,56,74
1,64540,Note_off_c,0,63,88
1,64564,Note_off_c,0,60,66
1,64568,Note_off_c,0,48,92
1,64584,Note_on_c,0,63,88
1,64588,Note_on_c,0,42,92
1,64588,Note_on_c,0,58,70
1,64612,Note_off_c,0,56,74
1,64624,Note_off_c,0,68,83
1,65076,Note_off_c,0,58,70
1,65144,Note_on_c,0,65,91
1,65156,Note_off_c,0,63,88
1,65300,Note_off_c,0,42,92
1,65336,Note_on_c,0,58,84
1,65352,Note_on_c,0,41,92
1,65500,Note_off_c,0,58,84
1,65508,Note_on_c,0,57,62
1,65860,Note_off_c,0,57,62
1,65904,Note_on_c,0,57,46
1,65928,Note_on_c,0,60,58
1,66064,Note_off_c,0,65,91
1,66088,Note_off_c,0,57,46
1,66100,Note_off_c,0,60,58
1,66108,Note_off_c,0,41,92
1,66116,Note_on_c,0,65,82
1,66120,Note_on_c,0,63,74
1,66124,Note_on_c,0,46,92
1,66124,Note_on_c,0,58,74
1,66284,Note_on_c,0,61,58
1,66288,Note_off_c,0,63,74
1,66792,Note_off_c,0,65,82
1,66800,Note_off_c,0,58,74
1,66836,Note_off_c,0,46,92
1,66840,Note_off_c,0,61,58
1,66872,Note_on_c,0,61,70
1,66872,Note_on_c,0,65,74
1,66876,Note_on_c,0,58,83
1,66876,Note_on_c,0,44,91
1,67256,Note_on_c,0,70,82
1,67620,Note_off_c,0,70,82
1,67628,Note_off_c,0,61,70
1,67632,Note_off_c,0,65,74
1,67636,Note_off_c,0,58,83
1,67648,Note_on_c,0,58,87
1,67652,Note_off_c,0,44,91
1,67652,Note_on_c,0,61,86
1,67656,Note_on_c,0,66,76
1,67660,Note_on_c,0,42,85
1,68364,Note_off_c,0,66,76
1,68372,Note_off_c,0,58,87
1,68388,Note_off_c,0,42,85
1,68388,Note_off_c,0,61,86
1,68416,Note_on_c,0,46,74
1,68420,Note_on_c,0,58,74
1,68424,Note_on_c,0,61,83
1,68424,Note_on_c,0,66,70
1,68596,Note_off_c,0,46,74
1,68604,Note_on_c,0,42,83
1,68960,Note_off_c,0,61,83
1,68960,Note_off_c,0,58,74
1,68980,Note_off_c,0,66,70
1,68996,Note_on_c,0,61,92
1,68996,Note_on_c,0,65,101
1,69004,Note_on_c,0,56,83
1,69152,Note_off_c,0,42,83
1,69192,Note_on_c,0,49,92
1,69324,Note_off_c,0,56,83
1,69376,Note_on_c,0,56,70
1,69568,Note_on_c,0,63,83
1,69576,Note_off_c,0,65,101
1,69764,Note_on_c,0,65,74
1,69936,Note_off_c,0,63,83
1,69936,Note_off_c,0,61,92
1,69944,Note_off_c,0,65,74
1,69952,Note_on_c,0,61,70
1,69960,Note_on_c,0,58,83
1,69960,Note_on_c,0,66,86
1,69968,Note_off_c,0,56,70
1,70304,Note_off_c,0,66,86
1,70320,Note_off_c,0,58,83
1,70320,Note_off_c,0,61,70
1,70340,Note_on_c,0,61,66
1,70344,Note_on_c,0,58,74
1,70344,Note_on_c,0,66,101
1,70596,Note_off_c,0,49,92
1,70712,Note_off_c,0,58,74
1,70716,Note_off_c,0,66,101
1,70724,Note_off_c,0,61,66
1,70728,Note_on_c,0,60,101
1,70728,Note_on_c,0,56,92
1,70732,Note_on_c,0,44,95
1,71268,Note_off_c,0,56,92
1,71288,Note_off_c,0,44,95
1,71292,Note_on_c,0,46,83
1,71304,Note_on_c,0,61,74
1,71308,Note_on_c,0,58,83
1,71316,Note_off_c,0,60,101
1,71468,Note_off_c,0,58,83
1,71488,Note_on_c,0,48,101
1,71492,Note_on_c,0,60,92
1,71496,Note_on_c,0,63,101
1,71508,Note_off_c,0,46,83
1,71520,Note_off_c,0,61,74
1,71856,Note_off_c,0,63,101
1,71864,Note_off_c,0,60,92
1,71876,Note_on_c,0,56,83
1,72060,Note_off_c,0,56,83
1,72060,Note_on_c,0,66,83
1,72064,Note_on_c,0,63,92
1,72236,Note_off_c,0,48,101
1,72240,Note_off_c,0,63,92
1,72244,Note_off_c,0,66,83
1,72252,Note_on_c,0,65,92
1,72256,Note_on_c,0,49,92
1,72256,Note_on_c,0,61,83
1,72632,Note_on_c,0,56,58
1,72744,Note_off_c,0,65,92
1,72824,Note_on_c,0,65,97
1,73036,Note_off_c,0,61,83
1,73152,Note_off_c,0,56,58
1,73216,Note_on_c,0,56,74
1,73408,Note_on_c,0,70,97
1,73484,Note_off_c,0,65,97
1,73764,Note_off_c,0,70,97
1,73768,Note_off_c,0,56,74
1,73776,Note_off_c,0,49,92
1,73796,Note_on_c,0,68,98
1,73796,Note_on_c,0,63,83
1,73800,Note_on_c,0,44,91
1,73984,Note_on_c,0,56,66
1,74012,Note_off_c,0,63,83
1,74164,Note_off_c,0,56,66
1,74164,Note_on_c,0,63,74
1,74188,Note_off_c,0,68,98
1,74324,Note_off_c,0,63,74
1,74368,Note_on_c,0,63,92
1,74368,Note_on_c,0,66,91
1,74696,Note_off_c,0,63,92
1,74708,Note_off_c,0,66,91
1,74752,Note_on_c,0,56,66
1,74752,Note_on_c,0,63,63
1,74752,Note_on_c,0,65,93
1,75108,Note_off_c,0,63,63
1,75132,Note_on_c,0,61,88
1,75308,Note_off_c,0,56,66
1,75316,Note_off_c,0,65,93
1,75316,Note_off_c,0,44,91
1,75328,Note_on_c,0,65,97
1,75336,Note_on_c,0,56,74
1,75336,Note_on_c,0,49,92
1,75852,Note_off_c,0,61,88
1,75908,Note_on_c,0,61,62
1,76060,Note_off_c,0,65,97
1,76064,Note_off_c,0,56,74
1,76080,Note_off_c,0,49,92
1,76092,Note_on_c,0,56,74
1,76092,Note_on_c,0,65,101
1,76096,Note_on_c,0,41,83
1,76320,Note_off_c,0,41,83
1,76356,Note_on_c,0,66,92
1,76360,Note_on_c,0,42,74
1,76372,Note_off_c,0,65,101
1,76568,Note_off_c,0,42,74
1,76604,Note_on_c,0,44,83
1,76612,Note_on_c,0,68,97
1,76664,Note_off_c,0,66,92
1,76832,Note_off_c,0,61,62
1,76836,Note_off_c,0,44,83
1,76860,Note_off_c,0,56,74
1,76864,Note_on_c,0,42,91
1,76868,Note_on_c,0,63,92
1,76868,Note_on_c,0,72,99
1,76872,Note_off_c,0,68,97
1,77052,Note_on_c,0,70,85
1,77068,Note_off_c,0,63,92
1,77240,Note_on_c,0,63,76
1,77256,Note_off_c,0,70,85
1,77436,Note_on_c,0,68,74
1,77604,Note_off_c,0,42,91
1,77616,Note_off_c,0,68,74
1,77632,Note_on_c,0,41,92
1,77632,Note_on_c,0,61,91
1,77632,Note_on_c,0,68,97
1,77640,Note_off_c,0,63,76
1,77640,Note_off_c,0,72,99
1,77832,Note_on_c,0,56,79
1,77840,Note_off_c,0,61,91
1,78016,Note_on_c,0,61,74
1,78044,Note_off_c,0,68,97
1,78208,Note_on_c,0,68,83
1,78352,Note_off_c,0,56,79
1,78356,Note_off_c,0,41,92
1,78388,Note_off_c,0,61,74
1,78392,Note_off_c,0,68,83
1,78404,Note_on_c,0,42,94
1,78408,Note_on_c,0,68,83
1,78408,Note_on_c,0,72,96
1,78596,Note_on_c,0,61,58
1,78708,Note_off_c,0,72,96
1,78736,Note_off_c,0,68,83
1,78780,Note_on_c,0,73,83
1,78872,Note_off_c,0,61,58
1,78972,Note_on_c,0,68,94
1,79096,Note_off_c,0,42,94
1,79164,Note_on_c,0,41,83
1,79348,Note_on_c,0,61,62
1,79356,Note_off_c,0,73,83
1,79364,Note_off_c,0,68,94
1,79540,Note_on_c,0,68,91
1,79576,Note_off_c,0,61,62
1,79728,Note_on_c,0,61,58
1,79916,Note_off_c,0,61,58
1,79928,Note_on_c,0,46,83
1,79940,Note_off_c,0,41,83
1,79940,Note_on_c,0,61,86
1,79940,Note_on_c,0,65,93
1,79960,Note_off_c,0,68,91
1,80516,Note_on_c,0,56,74
1,80568,Note_off_c,0,65,93
1,80668,Note_off_c,0,61,86
1,80708,Note_on_c,0,39,92
1,80712,Note_on_c,0,58,78
1,80712,Note_on_c,0,63,83
1,80720,Note_off_c,0,46,83
1,80724,Note_off_c,0,56,74
1,81096,Note_on_c,0,55,83
1,81288,Note_off_c,0,39,92
1,81288,Note_on_c,0,46,82
1,81448,Note_off_c,0,46,82
1,81452,Note_off_c,0,58,78
1,81460,Note_off_c,0,55,83
1,81472,Note_on_c,0,61,91
1,81472,Note_on_c,0,44,101
1,81472,Note_on_c,0,54,70
1,81504,Note_off_c,0,63,83
1,81660,Note_on_c,0,56,74
1,81684,Note_off_c,0,61,91
1,81848,Note_on_c,0,63,72
1,81992,Note_off_c,0,56,74
1,82020,Note_off_c,0,63,72
1,82024,Note_off_c,0,54,70
1,82044,Note_on_c,0,65,74
1,82048,Note_on_c,0,56,74
1,82196,Note_off_c,0,65,74
1,82216,Note_off_c,0,56,74
1,82220,Note_off_c,0,44,101
1,82240,Note_on_c,0,66,89
1,82244,Note_on_c,0,58,98
1,82248,Note_on_c,0,44,83
1,82420,Note_off_c,0,44,83
1,82424,Note_on_c,0,46,70
1,82584,Note_off_c,0,46,70
1,82588,Note_off_c,0,58,98
1,82604,Note_off_c,0,66,89
1,82616,Note_on_c,0,49,83
1,82628,Note_on_c,0,61,92
1,82636,Note_on_c,0,70,95
1,82768,Note_off_c,0,49,83
1,82800,Note_on_c,0,44,83
1,82980,Note_off_c,0,61,92
1,82988,Note_off_c,0,44,83
1,82996,Note_off_c,0,70,95
1,83016,Note_on_c,0,60,92
1,83016,Note_on_c,0,68,95
1,83020,Note_on_c,0,44,95
1,83328,Note_off_c,0,60,92
1,83356,Note_off_c,0,68,95
1,83400,Note_on_c,0,60,66
1,83404,Note_on_c,0,63,66
1,83580,Note_on_c,0,56,70
1,83592,Note_off_c,0,60,66
1,83600,Note_off_c,0,63,66
1,83724,Note_off_c,0,56,70
1,83784,Note_on_c,0,60,92
1,83788,Note_on_c,0,63,83
1,84136,Note_off_c,0,44,95
1,84144,Note_off_c,0,63,83
1,84144,Note_off_c,0,60,92
1,84156,Note_on_c,0,63,92
1,84160,Note_on_c,0,44,83
1,84160,Note_on_c,0,66,74
1,84336,Note_off_c,0,44,83
1,84356,Note_on_c,0,56,66
1,84360,Note_on_c,0,48,83
1,84520,Note_off_c,0,56,66
1,84536,Note_off_c,0,48,83
1,84536,Note_off_c,0,66,74
1,84536,Note_off_c,0,63,92
1,84540,Note_on_c,0,65,92
1,84544,Note_on_c,0,49,92
1,84544,Note_on_c,0,61,83
1,84728,Note_on_c,0,56,62
1,84872,Note_off_c,0,65,92
1,84924,Note_on_c,0,65,83
1,85064,Note_off_c,0,49,92
1,85104,Note_off_c,0,61,83
1,85112,Note_on_c,0,61,66
1,85116,Note_on_c,0,68,74
1,85124,Note_on_c,0,49,92
1,85288,Note_off_c,0,61,66
1,85300,Note_off_c,0,56,62
1,85308,Note_on_c,0,61,83
1,85308,Note_on_c,0,73,94
1,85316,Note_off_c,0,65,83
1,85644,Note_off_c,0,61,83
1,85676,Note_off_c,0,73,94
1,85684,Note_off_c,0,68,74
1,85700,Note_on_c,0,61,74
1,85700,Note_on_c,0,70,92
1,86036,Note_off_c,0,49,92
1,86080,Note_off_c,0,70,92
1,86084,Note_on_c,0,68,98
1,86084,Note_on_c,0,60,83
1,86088,Note_on_c,0,48,91
1,86100,Note_off_c,0,61,74
1,86272,Note_on_c,0,56,66
1,86300,Note_off_c,0,60,83
1,86452,Note_off_c,0,56,66
1,86452,Note_on_c,0,63,74
1,86476,Note_off_c,0,68,98
1,86612,Note_off_c,0,63,74
1,86624,Note_off_c,0,48,91
1,86656,Note_on_c,0,63,92
1,86656,Note_on_c,0,66,91
1,86660,Note_on_c,0,48,80
1,86824,Note_off_c,0,48,80
1,86856,Note_on_c,0,45,101
1,87036,Note_off_c,0,66,91
1,87044,Note_off_c,0,63,92
1,87044,Note_on_c,0,65,70
1,87232,Note_on_c,0,57,66
1,87384,Note_off_c,0,45,101
1,87420,Note_on_c,0,60,74
1,87420,Note_on_c,0,45,58
1,87600,Note_off_c,0,45,58
1,87600,Note_off_c,0,65,70
1,87604,Note_off_c,0,60,74
1,87608,Note_on_c,0,46,92
1,87612,Note_off_c,0,57,66
1,87612,Note_on_c,0,53,74
1,87808,Note_on_c,0,60,70
1,87992,Note_on_c,0,61,74
1,88316,Note_off_c,0,53,74
1,88324,Note_off_c,0,60,70
1,88340,Note_off_c,0,61,74
1,88376,Note_on_c,0,44,92
1,88376,Note_on_c,0,61,70
1,88380,Note_on_c,0,65,101
1,88384,Note_off_c,0,46,92
1,88612,Note_off_c,0,61,70
1,88644,Note_on_c,0,63,74
1,88644,Note_on_c,0,66,92
1,88660,Note_off_c,0,65,101
1,88856,Note_off_c,0,63,74
1,88896,Note_on_c,0,65,83
1,88900,Note_on_c,0,68,97
1,88952,Note_off_c,0,66,92
1,89116,Note_off_c,0,65,83
1,89152,Note_on_c,0,42,91
1,89156,Note_off_c,0,44,92
1,89156,Note_on_c,0,63,92
1,89156,Note_on_c,0,72,99
1,89160,Note_off_c,0,68,97
1,89340,Note_on_c,0,70,85
1,89356,Note_off_c,0,63,92
1,89528,Note_on_c,0,63,76
1,89544,Note_off_c,0,70,85
1,89724,Note_on_c,0,68,74
1,89892,Note_off_c,0,42,91
1,89904,Note_off_c,0,68,74
1,89920,Note_on_c,0,41,92
1,89920,Note_on_c,0,61,91
1,89920,Note_on_c,0,68,97
1,89928,Note_off_c,0,63,76
1,89928,Note_off_c,0,72,99
1,90120,Note_on_c,0,60,68
1,90128,Note_off_c,0,61,91
1,90304,Note_on_c,0,61,74
1,90332,Note_off_c,0,68,97
1,90496,Note_on_c,0,68,83
1,90640,Note_off_c,0,60,68
1,90644,Note_off_c,0,41,92
1,90676,Note_off_c,0,61,74
1,90680,Note_off_c,0,68,83
1,90692,Note_on_c,0,42,94
1,90696,Note_on_c,0,68,83
1,90696,Note_on_c,0,72,96
1,90884,Note_on_c,0,61,58
1,90996,Note_off_c,0,72,96
1,91024,Note_off_c,0,68,83
1,91068,Note_on_c,0,73,83
1,91260,Note_on_c,0,68,94
1,91384,Note_off_c,0,42,94
1,91452,Note_on_c,0,41,83
1,91520,Note_off_c,0,61,58
1,91636,Note_on_c,0,61,76
1,92152,Note_off_c,0,68,94
1,92184,Note_off_c,0,61,76
1,92188,Note_off_c,0,73,83
1,92216,Note_on_c,0,46,83
1,92228,Note_off_c,0,41,83
1,92228,Note_on_c,0,61,86
1,92228,Note_on_c,0,65,93
1,92804,Note_on_c,0,56,74
1,92856,Note_off_c,0,65,93
1,92956,Note_off_c,0,61,86
1,92996,Note_on_c,0,39,92
1,93000,Note_on_c,0,63,83
1,93004,Note_on_c,0,58,92
1,93008,Note_off_c,0,46,83
1,93012,Note_off_c,0,56,74
1,93384,Note_on_c,0,55,83
1,93712,Note_off_c,0,58,92
1,93748,Note_off_c,0,55,83
1,93752,Note_off_c,0,39,92
1,93760,Note_on_c,0,66,92
1,93760,Note_on_c,0,47,97
1,93760,Note_on_c,0,58,101
1,93792,Note_off_c,0,63,83
1,94144,Note_on_c,0,65,83
1,94176,Note_off_c,0,66,92
1,94476,Note_off_c,0,58,101
1,94508,Note_off_c,0,47,97
1,94520,Note_off_c,0,65,83
1,94528,Note_on_c,0,54,87
1,94528,Note_on_c,0,63,99
1,94536,Note_on_c,0,44,97
1,94716,Note_on_c,0,61,74
1,94912,Note_on_c,0,56,83
1,94956,Note_off_c,0,63,99
1,95108,Note_on_c,0,63,92
1,95284,Note_off_c,0,44,97
1,95288,Note_off_c,0,56,83
1,95296,Note_on_c,0,69,88
1,95300,Note_off_c,0,54,87
1,95304,Note_off_c,0,61,74
1,95304,Note_on_c,0,45,92
1,95304,Note_on_c,0,52,83
1,95308,Note_off_c,0,63,92
1,95312,Note_on_c,0,61,92
1,95796,Note_off_c,0,52,83
1,95848,Note_off_c,0,61,92
1,95868,Note_on_c,0,62,83
1,95872,Note_on_c,0,54,92
1,96224,Note_off_c,0,62,83
1,96252,Note_on_c,0,61,79
1,96408,Note_off_c,0,54,92
1,96440,Note_on_c,0,57,79
1,96560,Note_off_c,0,69,88
1,96628,Note_on_c,0,52,85
1,96656,Note_off_c,0,57,79
1,96740,Note_off_c,0,45,92
1,96832,Note_on_c,0,45,87
1,97420,Note_on_c,0,64,62
1,97604,Note_on_c,0,73,92
1,97684,Note_off_c,0,64,62
1,97804,Note_on_c,0,62,66
1,97964,Note_off_c,0,73,92
1,97988,Note_off_c,0,61,79
1,97996,Note_on_c,0,71,92
1,98060,Note_off_c,0,62,66
1,98184,Note_on_c,0,61,66
1,98328,Note_off_c,0,52,85
1,98336,Note_off_c,0,45,87
1,98368,Note_off_c,0,61,66
1,98372,Note_on_c,0,64,62
1,98376,Note_on_c,0,45,92
1,98376,Note_on_c,0,52,83
1,98376,Note_on_c,0,61,92
1,98404,Note_off_c,0,71,92
1,98868,Note_off_c,0,52,83
1,98912,Note_off_c,0,61,92
1,98948,Note_on_c,0,57,63
1,98948,Note_on_c,0,62,83
1,98948,Note_on_c,0,54,92
1,98960,Note_off_c,0,64,62
1,99092,Note_off_c,0,45,92
1,99144,Note_on_c,0,42,92
1,99324,Note_off_c,0,62,83
1,99332,Note_off_c,0,54,92
1,99332,Note_off_c,0,57,63
1,99332,Note_on_c,0,61,82
1,99524,Note_on_c,0,57,82
1,99704,Note_off_c,0,42,92
1,99708,Note_on_c,0,45,74
1,99708,Note_on_c,0,52,68
1,99856,Note_off_c,0,61,82
1,99900,Note_off_c,0,45,74
1,99904,Note_on_c,0,41,92
1,99904,Note_on_c,0,53,70
1,99904,Note_on_c,0,62,83
1,99912,Note_off_c,0,57,82
1,99916,Note_off_c,0,52,68
1,100104,Note_on_c,0,50,79
1,100292,Note_on_c,0,57,70
1,100480,Note_on_c,0,59,83
1,100512,Note_off_c,0,62,83
1,100640,Note_off_c,0,50,79
1,100648,Note_off_c,0,59,83
1,100660,Note_off_c,0,53,70
1,100672,Note_on_c,0,59,66
1,100672,Note_on_c,0,62,88
1,100700,Note_off_c,0,57,70
1,100868,Note_on_c,0,53,74
1,101024,Note_off_c,0,62,88
1,101048,Note_off_c,0,59,66
1,101056,Note_off_c,0,41,92
1,101064,Note_off_c,0,53,74
1,101064,Note_on_c,0,40,92
1,101064,Note_on_c,0,56,92
1,101064,Note_on_c,0,62,83
1,101408,Note_off_c,0,62,83
1,101420,Note_off_c,0,56,92
1,101424,Note_off_c,0,40,92
1,101448,Note_on_c,0,38,92
1,101448,Note_on_c,0,59,88
1,101452,Note_on_c,0,54,70
1,101940,Note_off_c,0,54,70
1,102028,Note_on_c,0,54,66
1,102160,Note_off_c,0,38,92
1,102180,Note_off_c,0,59,88
1,102204,Note_off_c,0,54,66
1,102216,Note_on_c,0,37,92
1,102216,Note_on_c,0,61,96
1,102400,Note_on_c,0,56,58
1,102600,Note_on_c,0,53,83
1,102948,Note_off_c,0,61,96
1,102968,Note_off_c,0,53,83
1,102972,Note_off_c,0,37,92
1,102980,Note_off_c,0,56,58
1,102980,Note_on_c,0,61,82
1,102984,Note_on_c,0,59,74
1,102988,Note_on_c,0,42,92
1,102988,Note_on_c,0,54,74
1,103148,Note_on_c,0,57,58
1,103152,Note_off_c,0,59,74
1,103656,Note_off_c,0,61,82
1,103664,Note_off_c,0,54,74
1,103700,Note_off_c,0,42,92
1,103704,Note_off_c,0,57,58
1,103736,Note_on_c,0,57,70
1,103736,Note_on_c,0,61,74
1,103740,Note_on_c,0,64,83
1,103740,Note_on_c,0,66,83
1,103740,Note_on_c,0,40,91
1,104492,Note_off_c,0,57,70
1,104496,Note_off_c,0,64,83
1,104496,Note_off_c,0,61,74
1,104500,Note_off_c,0,66,83
1,104516,Note_off_c,0,40,91
1,104520,Note_on_c,0,62,101
1,104524,Note_on_c,0,45,83
1,104524,Note_on_c,0,55,83
1,104524,Note_on_c,0,59,92
1,104524,Note_on_c,0,66,70
1,104524,Note_on_c,0,69,74
1,105260,Note_off_c,0,62,101
1,105264,Note_off_c,0,59,92
1,105272,Note_off_c,0,55,83
1,105272,Note_off_c,0,45,83
1,105276,Note_off_c,0,69,74
1,105276,Note_off_c,0,66,70
1,105288,Note_on_c,0,45,62
1,105288,Note_on_c,0,59,58
1,105288,Note_on_c,0,62,101
1,105288,Note_on_c,0,66,92
1,105292,Note_on_c,0,55,70
1,105292,Note_on_c,0,69,83
1,105976,Note_off_c,0,55,70
1,105980,Note_off_c,0,45,62
1,105996,Note_off_c,0,59,58
1,106000,Note_off_c,0,69,83
1,106004,Note_off_c,0,62,101
1,106008,Note_off_c,0,66,92
1,106040,Note_on_c,0,45,83
1,106044,Note_on_c,0,59,101
1,106044,Note_on_c,0,62,101
1,106044,Note_on_c,0,64,92
1,106044,Note_on_c,0,69,62
1,106048,Note_on_c,0,55,83
1,106148,Note_off_c,0,55,83
1,106148,Note_off_c,0,45,83
1,106156,Note_off_c,0,69,62
1,106160,Note_off_c,0,59,101
1,106164,Note_off_c,0,62,101
1,106168,Note_off_c,0,64,92
1,106628,Note_on_c,0,66,74
1,106808,Note_off_c,0,66,74
1,106816,Note_on_c,0,62,70
1,106824,Note_on_c,0,50,92
1,106824,Note_on_c,0,59,83
1,106824,Note_on_c,0,67,86
1,107168,Note_off_c,0,67,86
1,107184,Note_off_c,0,59,83
1,107184,Note_off_c,0,62,70
1,107204,Note_on_c,0,62,66
1,107208,Note_on_c,0,59,74
1,107208,Note_on_c,0,67,101
1,107564,Note_off_c,0,50,92
1,107576,Note_off_c,0,59,74
1,107580,Note_off_c,0,67,101
1,107588,Note_off_c,0,62,66
1,107592,Note_on_c,0,61,101
1,107592,Note_on_c,0,64,92
1,107596,Note_on_c,0,42,95
1,107596,Note_on_c,0,59,83
1,107596,Note_on_c,0,69,70
1,107600,Note_on_c,0,57,66
1,108160,Note_on_c,0,62,66
1,108312,Note_off_c,0,59,83
1,108316,Note_off_c,0,57,66
1,108324,Note_off_c,0,64,92
1,108328,Note_off_c,0,69,70
1,108332,Note_off_c,0,61,101
1,108344,Note_on_c,0,57,83
1,108348,Note_on_c,0,45,74
1,108372,Note_off_c,0,42,95
1,108532,Note_off_c,0,45,74
1,108540,Note_off_c,0,62,66
1,108540,Note_on_c,0,67,101
1,108552,Note_on_c,0,49,101
1,108832,Note_off_c,0,57,83
1,108924,Note_on_c,0,57,74
1,109028,Note_off_c,0,67,101
1,109076,Note_off_c,0,49,101
1,109112,Note_off_c,0,57,74
1,109116,Note_on_c,0,66,92
1,109120,Note_on_c,0,50,92
1,109120,Note_on_c,0,62,83
1,109496,Note_on_c,0,57,58
1,109608,Note_off_c,0,66,92
1,109688,Note_on_c,0,66,97
1,109900,Note_off_c,0,62,83
1,110016,Note_off_c,0,57,58
1,110080,Note_on_c,0,57,74
1,110272,Note_on_c,0,71,97
1,110348,Note_off_c,0,66,97
1,110628,Note_off_c,0,71,97
1,110632,Note_off_c,0,57,74
1,110640,Note_off_c,0,50,92
1,110660,Note_on_c,0,49,88
1,110660,Note_on_c,0,69,98
1,110660,Note_on_c,0,64,83
1,110848,Note_on_c,0,57,66
1,110876,Note_off_c,0,64,83
1,111028,Note_off_c,0,57,66
1,111028,Note_on_c,0,64,74
1,111052,Note_off_c,0,69,98
1,111188,Note_off_c,0,64,74
1,111232,Note_on_c,0,64,92
1,111232,Note_on_c,0,67,91
1,111384,Note_off_c,0,49,88
1,111428,Note_on_c,0,49,101
1,111560,Note_off_c,0,64,92
1,111572,Note_off_c,0,67,91
1,111616,Note_on_c,0,57,66
1,111616,Note_on_c,0,64,63
1,111616,Note_on_c,0,66,93
1,111972,Note_off_c,0,64,63
1,111996,Note_on_c,0,62,88
1,112012,Note_off_c,0,49,101
1,112012,Note_on_c,0,45,74
1,112172,Note_off_c,0,57,66
1,112180,Note_off_c,0,45,74
1,112180,Note_off_c,0,66,93
1,112192,Note_on_c,0,66,97
1,112200,Note_on_c,0,57,74
1,112200,Note_on_c,0,50,92
1,112716,Note_off_c,0,62,88
1,112772,Note_on_c,0,62,62
1,112924,Note_off_c,0,66,97
1,112928,Note_off_c,0,57,74
1,112944,Note_off_c,0,50,92
1,112956,Note_on_c,0,57,74
1,112956,Note_on_c,0,66,101
1,112960,Note_on_c,0,38,83
1,113184,Note_off_c,0,38,83
1,113220,Note_on_c,0,67,92
1,113224,Note_on_c,0,40,74
1,113236,Note_off_c,0,66,101
1,113432,Note_off_c,0,40,74
1,113468,Note_on_c,0,42,83
1,113476,Note_on_c,0,69,97
1,113528,Note_off_c,0,67,92
1,113696,Note_off_c,0,62,62
1,113700,Note_off_c,0,42,83
1,113724,Note_off_c,0,57,74
1,113728,Note_on_c,0,43,91
1,113732,Note_on_c,0,64,92
1,113732,Note_on_c,0,73,99
1,113736,Note_off_c,0,69,97
1,113916,Note_on_c,0,71,85
1,113932,Note_off_c,0,64,92
1,114104,Note_on_c,0,64,76
1,114120,Note_off_c,0,71,85
1,114300,Note_on_c,0,69,74
1,114468,Note_off_c,0,43,91
1,114480,Note_off_c,0,69,74
1,114496,Note_on_c,0,42,92
1,114496,Note_on_c,0,62,91
1,114496,Note_on_c,0,69,97
1,114504,Note_off_c,0,64,76
1,114504,Note_off_c,0,73,99
1,114696,Note_on_c,0,57,79
1,114704,Note_off_c,0,62,91
1,114880,Note_on_c,0,62,74
1,114908,Note_off_c,0,69,97
1,115072,Note_on_c,0,69,83
1,115216,Note_off_c,0,57,79
1,115220,Note_off_c,0,42,92
1,115252,Note_off_c,0,62,74
1,115256,Note_off_c,0,69,83
1,115268,Note_on_c,0,43,94
1,115272,Note_on_c,0,69,83
1,115272,Note_on_c,0,73,96
1,115460,Note_on_c,0,62,58
1,115572,Note_off_c,0,73,96
1,115600,Note_off_c,0,69,83
1,115644,Note_on_c,0,74,83
1,115736,Note_off_c,0,62,58
1,115836,Note_on_c,0,69,94
1,115960,Note_off_c,0,43,94
1,116028,Note_on_c,0,42,83
1,116212,Note_on_c,0,62,62
1,116220,Note_off_c,0,74,83
1,116228,Note_off_c,0,69,94
1,116404,Note_on_c,0,69,91
1,116440,Note_off_c,0,62,62
1,116592,Note_on_c,0,62,58
1,116780,Note_off_c,0,62,58
1,116792,Note_on_c,0,62,101
1,116792,Note_on_c,0,66,92
1,116792,Note_on_c,0,47,83
1,116796,Note_on_c,0,57,83
1,116804,Note_off_c,0,42,83
1,116824,Note_off_c,0,69,91
1,117512,Note_off_c,0,66,92
1,117540,Note_off_c,0,57,83
1,117544,Note_off_c,0,62,101
1,117564,Note_on_c,0,66,74
1,117568,Note_on_c,0,62,83
1,117568,Note_on_c,0,56,83
1,117568,Note_on_c,0,59,83
1,117572,Note_on_c,0,40,92
1,117584,Note_off_c,0,47,83
1,117936,Note_on_c,0,64,83
1,117976,Note_off_c,0,62,83
1,118152,Note_off_c,0,40,92
1,118152,Note_on_c,0,47,82
1,118300,Note_off_c,0,64,83
1,118312,Note_off_c,0,47,82
1,118316,Note_off_c,0,59,83
1,118316,Note_off_c,0,56,83
1,118332,Note_on_c,0,64,83
1,118336,Note_off_c,0,66,74
1,118336,Note_on_c,0,62,91
1,118336,Note_on_c,0,45,101
1,118336,Note_on_c,0,55,70
1,118524,Note_on_c,0,61,56
1,118548,Note_off_c,0,62,91
1,118712,Note_on_c,0,57,72
1,118856,Note_off_c,0,61,56
1,118884,Note_off_c,0,57,72
1,118888,Note_off_c,0,55,70
1,118900,Note_off_c,0,64,83
1,118908,Note_on_c,0,66,74
1,118912,Note_on_c,0,57,74
1,119060,Note_off_c,0,66,74
1,119080,Note_off_c,0,57,74
1,119084,Note_off_c,0,45,101
1,119104,Note_on_c,0,67,89
1,119108,Note_on_c,0,59,98
1,119112,Note_on_c,0,45,83
1,119284,Note_off_c,0,45,83
1,119288,Note_on_c,0,47,70
1,119448,Note_off_c,0,47,70
1,119452,Note_off_c,0,59,98
1,119468,Note_off_c,0,67,89
1,119480,Note_on_c,0,50,83
1,119492,Note_on_c,0,62,92
1,119500,Note_on_c,0,71,95
1,119632,Note_off_c,0,50,83
1,119664,Note_on_c,0,45,83
1,119844,Note_off_c,0,62,92
1,119852,Note_off_c,0,45,83
1,119860,Note_off_c,0,71,95
1,119880,Note_on_c,0,61,92
1,119880,Note_on_c,0,69,95
1,119884,Note_on_c,0,45,95
1,120192,Note_off_c,0,61,92
1,120220,Note_off_c,0,69,95
1,120264,Note_on_c,0,61,66
1,120268,Note_on_c,0,64,66
1,120444,Note_on_c,0,57,70
1,120456,Note_off_c,0,61,66
1,120464,Note_off_c,0,64,66
1,120588,Note_off_c,0,57,70
1,120648,Note_on_c,0,61,92
1,120652,Note_on_c,0,64,83
1,121000,Note_off_c,0,45,95
1,121008,Note_off_c,0,64,83
1,121008,Note_off_c,0,61,92
1,121020,Note_on_c,0,64,92
1,121024,Note_on_c,0,45,83
1,121024,Note_on_c,0,67,74
1,121200,Note_off_c,0,45,83
1,121220,Note_on_c,0,57,66
1,121224,Note_on_c,0,49,83
1,121384,Note_off_c,0,57,66
1,121400,Note_off_c,0,49,83
1,121400,Note_off_c,0,67,74
1,121400,Note_off_c,0,64,92
1,121404,Note_on_c,0,66,92
1,121408,Note_on_c,0,50,92
1,121408,Note_on_c,0,62,83
1,121592,Note_on_c,0,57,62
1,121736,Note_off_c,0,66,92
1,121788,Note_on_c,0,66,83
1,121928,Note_off_c,0,50,92
1,121968,Note_off_c,0,62,83
1,121976,Note_on_c,0,62,66
1,121980,Note_on_c,0,69,74
1,121988,Note_on_c,0,50,92
1,122152,Note_off_c,0,62,66
1,122164,Note_off_c,0,57,62
1,122172,Note_on_c,0,62,83
1,122172,Note_on_c,0,74,94
1,122180,Note_off_c,0,66,83
1,122508,Note_off_c,0,62,83
1,122540,Note_off_c,0,74,94
1,122548,Note_off_c,0,69,74
1,122564,Note_on_c,0,62,74
1,122564,Note_on_c,0,71,92
1,122900,Note_off_c,0,50,92
1,122944,Note_off_c,0,71,92
1,122948,Note_off_c,0,62,74
1,122948,Note_on_c,0,69,98
1,122948,Note_on_c,0,61,83
1,122952,Note_on_c,0,49,91
1,123136,Note_on_c,0,57,66
1,123164,Note_off_c,0,61,83
1,123316,Note_off_c,0,57,66
1,123316,Note_on_c,0,64,74
1,123340,Note_off_c,0,69,98
1,123476,Note_off_c,0,64,74
1,123488,Note_off_c,0,49,91
1,123520,Note_on_c,0,64,92
1,123520,Note_on_c,0,67,91
1,123524,Note_on_c,0,49,80
1,123688,Note_off_c,0,49,80
1,123720,Note_on_c,0,46,92
1,123900,Note_off_c,0,67,91
1,123908,Note_off_c,0,64,92
1,123908,Note_on_c,0,66,70
1,124096,Note_on_c,0,58,66
1,124104,Note_off_c,0,46,92
1,124104,Note_on_c,0,42,92
1,124284,Note_on_c,0,61,74
1,124432,Note_off_c,0,42,92
1,124464,Note_off_c,0,66,70
1,124468,Note_off_c,0,61,74
1,124472,Note_on_c,0,47,92
1,124476,Note_off_c,0,58,66
1,124476,Note_on_c,0,54,74
1,124672,Note_on_c,0,61,70
1,124856,Note_on_c,0,62,74
1,125180,Note_off_c,0,54,74
1,125188,Note_off_c,0,61,70
1,125204,Note_off_c,0,62,74
1,125240,Note_on_c,0,45,92
1,125240,Note_on_c,0,62,70
1,125244,Note_on_c,0,66,101
1,125248,Note_off_c,0,47,92
1,125476,Note_off_c,0,62,70
1,125508,Note_on_c,0,64,74
1,125508,Note_on_c,0,67,92
1,125524,Note_off_c,0,66,101
1,125720,Note_off_c,0,64,74
1,125760,Note_on_c,0,66,83
1,125764,Note_on_c,0,69,97
1,125816,Note_off_c,0,67,92
1,125980,Note_off_c,0,66,83
1,126016,Note_on_c,0,43,91
1,126020,Note_off_c,0,45,92
1,126020,Note_on_c,0,64,92
1,126020,Note_on_c,0,73,99
1,126024,Note_off_c,0,69,97
1,126204,Note_on_c,0,71,85
1,126220,Note_off_c,0,64,92
1,126392,Note_on_c,0,64,76
1,126408,Note_off_c,0,71,85
1,126588,Note_on_c,0,69,74
1,126756,Note_off_c,0,43,91
1,126768,Note_off_c,0,69,74
1,126784,Note_on_c,0,42,92
1,126784,Note_on_c,0,62,91
1,126784,Note_on_c,0,69,97
1,126792,Note_off_c,0,64,76
1,126792,Note_off_c,0,73,99
1,126984,Note_on_c,0,61,68
1,126992,Note_off_c,0,62,91
1,127168,Note_on_c,0,62,74
1,127196,Note_off_c,0,69,97
1,127360,Note_on_c,0,69,83
1,127504,Note_off_c,0,61,68
1,127508,Note_off_c,0,42,92
1,127540,Note_off_c,0,62,74
1,127544,Note_off_c,0,69,83
1,127556,Note_on_c,0,43,94
1,127560,Note_on_c,0,69,83
1,127560,Note_on_c,0,73,96
1,127748,Note_on_c,0,62,58
1,127860,Note_off_c,0,73,96
1,127888,Note_off_c,0,69,83
1,127932,Note_on_c,0,74,83
1,128124,Note_on_c,0,69,94
1,128248,Note_off_c,0,43,94
1,128320,Note_on_c,0,42,83
1,128384,Note_off_c,0,62,58
1,128500,Note_on_c,0,62,76
1,129016,Note_off_c,0,69,94
1,129048,Note_off_c,0,62,76
1,129052,Note_off_c,0,74,83
1,129096,Note_off_c,0,42,83
1,129096,Note_on_c,0,69,101
1,129100,Note_on_c,0,43,92
1,129100,Note_on_c,0,65,70
1,129100,Note_on_c,0,73,83
1,129484,Note_on_c,0,71,92
1,129844,Note_off_c,0,65,70
1,129844,Note_off_c,0,43,92
1,129852,Note_off_c,0,71,92
1,129852,Note_off_c,0,69,101
1,129860,Note_on_c,0,42,101
1,129860,Note_on_c,0,61,83
1,129864,Note_off_c,0,73,83
1,129868,Note_on_c,0,64,92
1,129868,Note_on_c,0,69,83
1,129872,Note_on_c,0,66,83
1,130220,Note_off_c,0,61,83
1,130228,Note_off_c,0,42,101
1,130248,Note_on_c,0,62,74
1,130252,Note_on_c,0,38,92
1,130600,Note_off_c,0,66,83
1,130612,Note_off_c,0,38,92
1,130616,Note_off_c,0,69,83
1,130620,Note_off_c,0,64,92
1,130624,Note_off_c,0,62,74
1,130628,Note_on_c,0,58,74
1,130632,Note_on_c,0,61,83
1,130632,Note_on_c,0,66,84
1,130636,Note_on_c,0,46,92
1,130636,Note_on_c,0,64,92
1,131340,Note_off_c,0,46,92
1,131380,Note_off_c,0,64,92
1,131388,Note_off_c,0,61,83
1,131388,Note_on_c,0,47,101
1,131388,Note_on_c,0,57,92
1,131388,Note_on_c,0,62,101
1,131392,Note_off_c,0,66,84
1,131396,Note_off_c,0,58,74
1,131584,Note_on_c,0,64,83
1,131772,Note_on_c,0,66,101
1,132084,Note_off_c,0,47,101
1,132128,Note_off_c,0,66,101
1,132140,Note_off_c,0,62,101
1,132152,Note_off_c,0,64,83
1,132152,Note_off_c,0,57,92
1,132152,Note_on_c,0,40,83
1,132164,Note_on_c,0,57,92
1,132164,Note_on_c,0,62,86
1,132164,Note_on_c,0,66,93
1,132792,Note_off_c,0,66,93
1,132848,Note_off_c,0,57,92
1,132892,Note_off_c,0,62,86
1,132900,Note_off_c,0,40,83
1,132932,Note_on_c,0,40,92
1,132932,Note_on_c,0,56,83
1,132936,Note_on_c,0,64,83
1,132940,Note_on_c,0,59,92
1,133648,Note_off_c,0,59,92
1,133668,Note_off_c,0,64,83
1,133688,Note_off_c,0,40,92
1,133696,Note_on_c,0,67,92
1,133696,Note_on_c,0,48,97
1,133696,Note_on_c,0,59,101
1,133700,Note_on_c,0,62,83
1,133708,Note_off_c,0,56,83
1,134080,Note_on_c,0,66,83
1,134112,Note_off_c,0,67,92
1,134412,Note_off_c,0,59,101
1,134444,Note_off_c,0,62,83
1,134444,Note_off_c,0,48,97
1,134456,Note_off_c,0,66,83
1,134472,Note_on_c,0,45,97
1,134472,Note_on_c,0,59,83
1,134472,Note_on_c,0,64,83
1,134476,Note_on_c,0,55,92
1,134856,Note_on_c,0,62,74
1,135220,Note_off_c,0,45,97
1,135236,Note_off_c,0,62,74
1,135240,Note_on_c,0,47,83
1,135276,Note_off_c,0,55,92
1,135276,Note_off_c,0,59,83
1,135292,Note_off_c,0,64,83
1,135440,Note_on_c,0,54,62
1,135632,Note_on_c,0,61,74
1,135828,Note_on_c,0,62,83
1,136000,Note_on_c,0,66,54
1,136008,Note_on_c,0,57,74
1,136052,Note_off_c,0,47,83
1,136056,Note_off_c,0,54,62
1,136068,Note_off_c,0,62,83
1,136068,Note_off_c,0,61,74
1,136200,Note_on_c,0,71,70
1,136380,Note_on_c,0,73,74
1,136576,Note_on_c,0,74,83
1,136688,Note_on_c,0,44,74
1,136712,Note_on_c,0,50,70
1,136740,Note_on_c,0,59,78
1,136756,Note_on_c,0,54,62
1,136760,Note_off_c,0,57,74
1,136792,Note_off_c,0,66,54
1,136796,Note_off_c,0,74,83
1,136796,Note_off_c,0,71,70
1,136804,Note_off_c,0,73,74
1,136936,Note_on_c,0,66,58
1,137144,Note_on_c,0,71,83
1,137320,Note_on_c,0,78,50
1,137536,Note_on_c,0,83,74
1,138280,Note_off_c,0,59,78
1,138296,Note_off_c,0,50,70
1,138300,Note_off_c,0,71,83
1,138304,Note_off_c,0,66,58
1,138312,Note_off_c,0,54,62
1,138312,Note_off_c,0,44,74
1,138324,Note_off_c,0,83,74
1,138344,Note_off_c,0,78,50
1,138880,Note_on_c,0,66,66
1,139084,Note_on_c,0,67,83
1,139108,Note_off_c,0,66,66
1,139456,Note_off_c,0,67,83
1,139468,Note_on_c,0,71,85
1,139748,Note_on_c,0,59,62
1,139800,Note_on_c,0,61,72
1,139816,Note_on_c,0,64,70
1,139848,Note_off_c,0,71,85
1,139848,Note_on_c,0,42,82
1,139872,Note_on_c,0,69,88
1,140456,Note_off_c,0,64,70
1,140600,Note_on_c,0,64,74
1,140648,Note_off_c,0,61,72
1,140648,Note_off_c,0,59,62
1,140800,Note_on_c,0,57,58
1,140832,Note_off_c,0,64,74
1,140996,Note_on_c,0,61,83
1,141020,Note_off_c,0,57,58
1,141152,Note_off_c,0,42,82
1,141184,Note_on_c,0,62,66
1,141224,Note_off_c,0,61,83
1,141308,Note_off_c,0,69,88
1,141384,Note_on_c,0,43,76
1,141384,Note_on_c,0,55,62
1,141388,Note_on_c,0,59,74
1,141388,Note_on_c,0,66,73
1,141404,Note_off_c,0,62,66
1,141928,Note_off_c,0,66,73
1,141944,Note_on_c,0,66,54
1,142136,Note_on_c,0,67,85
1,142176,Note_off_c,0,66,54
1,142332,Note_on_c,0,57,66
1,142524,Note_on_c,0,71,83
1,142548,Note_off_c,0,67,85
1,142756,Note_off_c,0,43,76
1,142868,Note_off_c,0,55,62
1,142872,Note_off_c,0,59,74
1,142892,Note_off_c,0,57,66
1,142900,Note_on_c,0,69,82
1,142908,Note_off_c,0,71,83
1,142908,Note_on_c,0,59,70
1,142908,Note_on_c,0,61,70
1,142908,Note_on_c,0,64,74
1,142920,Note_on_c,0,42,75
1,143248,Note_off_c,0,59,70
1,143288,Note_on_c,0,59,62
1,143468,Note_off_c,0,61,70
1,143488,Note_on_c,0,62,76
1,143676,Note_on_c,0,52,59
1,143712,Note_off_c,0,62,76
1,143872,Note_on_c,0,61,74
1,143904,Note_off_c,0,52,59
1,144048,Note_off_c,0,59,62
1,144068,Note_off_c,0,61,74
1,144076,Note_on_c,0,52,40
1,144260,Note_on_c,0,59,74
1,144264,Note_off_c,0,52,40
1,144300,Note_off_c,0,42,75
1,144404,Note_off_c,0,69,82
1,144428,Note_off_c,0,64,74
1,144448,Note_off_c,0,59,74
1,144456,Note_on_c,0,43,75
1,144456,Note_on_c,0,55,62
1,144460,Note_on_c,0,59,74
1,144460,Note_on_c,0,66,73
1,145000,Note_off_c,0,66,73
1,145016,Note_on_c,0,66,54
1,145208,Note_on_c,0,67,85
1,145248,Note_off_c,0,66,54
1,145404,Note_on_c,0,57,66
1,145596,Note_on_c,0,71,83
1,145620,Note_off_c,0,67,85
1,145908,Note_off_c,0,43,75
1,145940,Note_off_c,0,55,62
1,145944,Note_off_c,0,59,74
1,145964,Note_off_c,0,57,66
1,145972,Note_on_c,0,69,82
1,145980,Note_off_c,0,71,83
1,145980,Note_on_c,0,42,75
1,145980,Note_on_c,0,59,70
1,145980,Note_on_c,0,61,70
1,145980,Note_on_c,0,64,74
1,146740,Note_off_c,0,61,70
1,146756,Note_on_c,0,62,74
1,146760,Note_off_c,0,59,70
1,146976,Note_off_c,0,62,74
1,147012,Note_on_c,0,57,59
1,147256,Note_off_c,0,57,59
1,147256,Note_on_c,0,62,70
1,147340,Note_off_c,0,42,75
1,147472,Note_off_c,0,62,70
1,147476,Note_off_c,0,69,82
1,147484,Note_on_c,0,55,70
1,147500,Note_off_c,0,64,74
1,147504,Note_on_c,0,59,83
1,147504,Note_on_c,0,62,74
1,147508,Note_on_c,0,45,74
1,147512,Note_on_c,0,66,74
1,148984,Note_off_c,0,55,70
1,149024,Note_off_c,0,59,83
1,149028,Note_off_c,0,62,74
1,149064,Note_on_c,0,61,70
1,149076,Note_on_c,0,55,70
1,150532,Note_off_c,0,61,70
1,150536,Note_off_c,0,66,74
1,150536,Note_off_c,0,45,74
1,150564,Note_off_c,0,55,70
1,150600,Note_on_c,0,50,92
1,150600,Note_on_c,0,57,83
1,150608,Note_on_c,0,66,92
1,150760,Note_off_c,0,57,83
1,150784,Note_on_c,0,57,62
1,150968,Note_on_c,0,64,83
1,151144,Note_off_c,0,66,92
1,151148,Note_off_c,0,57,62
1,151156,Note_on_c,0,59,66
1,151156,Note_on_c,0,67,92
1,151160,Note_off_c,0,64,83
1,151548,Note_on_c,0,66,79
1,151712,Note_off_c,0,67,92
1,151736,Note_on_c,0,62,79
1,151924,Note_on_c,0,57,85
1,151952,Note_off_c,0,62,79
1,152036,Note_off_c,0,50,92
1,152060,Note_off_c,0,59,66
1,152128,Note_on_c,0,50,87
1,152280,Note_off_c,0,57,85
1,152312,Note_on_c,0,57,59
1,152504,Note_on_c,0,62,83
1,152528,Note_off_c,0,57,59
1,152676,Note_on_c,0,69,70
1,152696,Note_on_c,0,57,70
1,152896,Note_on_c,0,78,74
1,152916,Note_off_c,0,69,70
1,153092,Note_on_c,0,67,58
1,153120,Note_off_c,0,78,74
1,153252,Note_off_c,0,66,79
1,153280,Note_on_c,0,76,70
1,153300,Note_off_c,0,67,58
1,153480,Note_on_c,0,66,50
1,153484,Note_off_c,0,76,70
1,153612,Note_off_c,0,57,70
1,153628,Note_off_c,0,62,83
1,153632,Note_off_c,0,50,87
1,153648,Note_off_c,0,66,50
1,153668,Note_on_c,0,69,62
1,153672,Note_on_c,0,50,92
1,153672,Note_on_c,0,57,83
1,153672,Note_on_c,0,74,66
1,153672,Note_on_c,0,66,92
1,153828,Note_off_c,0,57,83
1,153848,Note_on_c,0,57,70
1,154040,Note_on_c,0,64,83
1,154064,Note_off_c,0,57,70
1,154208,Note_off_c,0,66,92
1,154224,Note_off_c,0,64,83
1,154244,Note_on_c,0,62,63
1,154244,Note_on_c,0,67,83
1,154244,Note_on_c,0,59,92
1,154256,Note_off_c,0,69,62
1,154416,Note_off_c,0,74,66
1,154620,Note_off_c,0,67,83
1,154628,Note_off_c,0,59,92
1,154628,Note_off_c,0,62,63
1,154628,Note_on_c,0,66,82
1,154820,Note_on_c,0,62,82
1,154988,Note_off_c,0,50,92
1,155004,Note_on_c,0,50,74
1,155004,Note_on_c,0,57,68
1,155152,Note_off_c,0,66,82
1,155180,Note_off_c,0,62,82
1,155196,Note_off_c,0,50,74
1,155200,Note_on_c,0,47,92
1,155200,Note_on_c,0,62,70
1,155200,Note_on_c,0,66,83
1,155212,Note_off_c,0,57,68
1,155400,Note_on_c,0,55,79
1,155556,Note_off_c,0,62,70
1,155588,Note_on_c,0,62,70
1,155776,Note_on_c,0,64,83
1,155808,Note_off_c,0,66,83
1,155936,Note_off_c,0,55,79
1,155944,Note_off_c,0,64,83
1,155968,Note_on_c,0,61,66
1,155968,Note_on_c,0,64,88
1,155972,Note_off_c,0,47,92
1,155972,Note_on_c,0,49,92
1,155996,Note_off_c,0,62,70
1,156164,Note_on_c,0,57,74
1,156360,Note_off_c,0,57,74
1,156364,Note_on_c,0,69,91
1,156548,Note_on_c,0,67,79
1,156668,Note_on_c,0,38,58
1,156692,Note_on_c,0,54,54
1,156700,Note_off_c,0,64,88
1,156724,Note_off_c,0,61,66
1,156728,Note_off_c,0,49,92
1,156728,Note_on_c,0,45,66
1,156768,Note_on_c,0,50,70
1,156768,Note_on_c,0,57,74
1,156772,Note_off_c,0,67,79
1,156784,Note_off_c,0,69,91
1,156792,Note_on_c,0,62,66
1,156800,Note_on_c,0,66,83
1,159728,Note_off_c,0,38,58
1,159732,Note_off_c,0,50,70
1,159732,Note_off_c,0,45,66
1,159740,Note_off_c,0,57,74
1,159744,Note_off_c,0,62,66
1,159744,Note_off_c,0,54,54
1,159748,Note_off_c,0,66,83
1,165888,End_track
0,0,End_of_file
