0, 0, Header, 1, 1, 384
1, 0, Start_track
1, 0, Title_t, "Neuron 1"
1, 3072, Note_on_c, 0, 46, 83
1, 3260, Note_on_c, 0, 53, 70
1, 3448, Note_on_c, 0, 51, 74
1, 3456, Note_on_c, 0, 60, 83
1, 3464, Note_off_c, 0, 53, 70
1, 3632, Note_off_c, 0, 51, 74
1, 3636, Note_on_c, 0, 53, 83
1, 3644, Note_on_c, 0, 62, 83
1, 3648, Note_off_c, 0, 60, 83
1, 4532, Note_off_c, 0, 46, 83
1, 4596, Note_off_c, 0, 53, 83
1, 4600, Note_on_c, 0, 46, 85
1, 4624, Note_off_c, 0, 62, 83
1, 4768, Note_off_c, 0, 46, 85
1, 4792, Note_on_c, 0, 46, 74
1, 4980, Note_on_c, 0, 62, 85
1, 4984, Note_on_c, 0, 53, 74
1, 5172, Note_on_c, 0, 63, 92
1, 5176, Note_off_c, 0, 53, 74
1, 5176, Note_off_c, 0, 62, 85
1, 5176, Note_on_c, 0, 55, 83
1, 5564, Note_on_c, 0, 51, 74
1, 5564, Note_on_c, 0, 60, 83
1, 5588, Note_off_c, 0, 55, 83
1, 6120, Note_off_c, 0, 46, 74
1, 6136, Note_off_c, 0, 60, 83
1, 6144, Note_on_c, 0, 46, 83
1, 6148, Note_off_c, 0, 51, 74
1, 6176, Note_off_c, 0, 63, 92
1, 6332, Note_on_c, 0, 53, 70
1, 6520, Note_on_c, 0, 51, 74
1, 6528, Note_on_c, 0, 60, 83
1, 6536, Note_off_c, 0, 53, 70
1, 6704, Note_off_c, 0, 51, 74
1, 6708, Note_on_c, 0, 53, 83
1, 6716, Note_on_c, 0, 62, 83
1, 6720, Note_off_c, 0, 60, 83
1, 7604, Note_off_c, 0, 46, 83
1, 7668, Note_off_c, 0, 53, 83
1, 7672, Note_on_c, 0, 46, 85
1, 7696, Note_off_c, 0, 62, 83
1, 7840, Note_off_c, 0, 46, 85
1, 7864, Note_on_c, 0, 46, 74
1, 8052, Note_on_c, 0, 62, 85
1, 8056, Note_on_c, 0, 53, 74
1, 8244, Note_on_c, 0, 63, 92
1, 8248, Note_off_c, 0, 53, 74
1, 8248, Note_off_c, 0, 62, 85
1, 8248, Note_on_c, 0, 55, 83
1, 8636, Note_on_c, 0, 51, 74
1, 8636, Note_on_c, 0, 60, 83
1, 8660, Note_off_c, 0, 55, 83
1, 9188, Note_off_c, 0, 63, 92
1, 9192, Note_off_c, 0, 46, 74
1, 9208, Note_off_c, 0, 60, 83
1, 9216, Note_on_c, 0, 46, 92
1, 9216, Note_on_c, 0, 53, 83
1, 9220, Note_off_c, 0, 51, 74
1, 9224, Note_on_c, 0, 62, 92
1, 9708, Note_off_c, 0, 53, 83
1, 9760, Note_off_c, 0, 62, 92
1, 9780, Note_on_c, 0, 63, 83
1, 9784, Note_on_c, 0, 55, 92
1, 10320, Note_off_c, 0, 55, 92
1, 10364, Note_on_c, 0, 65, 92
1, 10364, Note_on_c, 0, 57, 92
1, 10376, Note_off_c, 0, 63, 83
1, 10652, Note_off_c, 0, 46, 92
1, 10712, Note_off_c, 0, 57, 92
1, 10732, Note_off_c, 0, 65, 92
1, 10744, Note_on_c, 0, 46, 87
1, 10744, Note_on_c, 0, 62, 83
1, 10756, Note_on_c, 0, 53, 83
1, 11320, Note_on_c, 0, 65, 66
1, 11508, Note_on_c, 0, 74, 83
1, 11700, Note_on_c, 0, 63, 74
1, 11772, Note_off_c, 0, 65, 66
1, 11820, Note_off_c, 0, 74, 83
1, 11892, Note_on_c, 0, 72, 83
1, 12236, Note_off_c, 0, 53, 83
1, 12248, Note_off_c, 0, 46, 87
1, 12264, Note_off_c, 0, 62, 83
1, 12272, Note_off_c, 0, 63, 74
1, 12288, Note_on_c, 0, 46, 92
1, 12288, Note_on_c, 0, 53, 83
1, 12288, Note_on_c, 0, 65, 70
1, 12296, Note_on_c, 0, 62, 92
1, 12304, Note_off_c, 0, 72, 83
1, 12780, Note_off_c, 0, 53, 83
1, 12832, Note_off_c, 0, 62, 92
1, 12836, Note_off_c, 0, 65, 70
1, 12852, Note_on_c, 0, 63, 83
1, 12856, Note_on_c, 0, 55, 92
1, 13224, Note_on_c, 0, 62, 66
1, 13228, Note_off_c, 0, 63, 83
1, 13424, Note_on_c, 0, 58, 66
1, 13488, Note_off_c, 0, 62, 66
1, 13784, Note_off_c, 0, 46, 92
1, 13796, Note_off_c, 0, 58, 66
1, 13800, Note_off_c, 0, 55, 92
1, 13816, Note_on_c, 0, 58, 80
1, 13816, Note_on_c, 0, 62, 92
1, 13816, Note_on_c, 0, 43, 92
1, 13824, Note_on_c, 0, 51, 80
1, 14568, Note_off_c, 0, 51, 80
1, 14588, Note_off_c, 0, 43, 92
1, 14588, Note_on_c, 0, 45, 92
1, 14588, Note_on_c, 0, 60, 80
1, 14588, Note_on_c, 0, 53, 74
1, 14592, Note_off_c, 0, 62, 92
1, 14620, Note_off_c, 0, 58, 80
1, 15328, Note_off_c, 0, 53, 74
1, 15344, Note_off_c, 0, 45, 92
1, 15352, Note_off_c, 0, 60, 80
1, 15360, Note_on_c, 0, 60, 88
1, 15364, Note_on_c, 0, 39, 92
1, 15364, Note_on_c, 0, 55, 70
1, 15852, Note_off_c, 0, 55, 70
1, 15920, Note_on_c, 0, 62, 91
1, 15924, Note_on_c, 0, 55, 92
1, 15932, Note_off_c, 0, 60, 88
1, 16076, Note_off_c, 0, 39, 92
1, 16128, Note_on_c, 0, 38, 92
1, 16284, Note_off_c, 0, 55, 92
1, 16304, Note_on_c, 0, 54, 85
1, 16836, Note_off_c, 0, 62, 91
1, 16852, Note_off_c, 0, 54, 85
1, 16884, Note_off_c, 0, 38, 92
1, 16900, Note_on_c, 0, 43, 92
1, 16900, Note_on_c, 0, 60, 89
1, 16900, Note_on_c, 0, 62, 77
1, 17244, Note_off_c, 0, 60, 89
1, 17272, Note_on_c, 0, 58, 88
1, 17592, Note_off_c, 0, 62, 77
1, 17612, Note_off_c, 0, 58, 88
1, 17612, Note_off_c, 0, 43, 92
1, 17652, Note_on_c, 0, 62, 80
1, 17652, Note_on_c, 0, 41, 91
1, 17652, Note_on_c, 0, 57, 92
1, 18000, Note_off_c, 0, 57, 92
1, 18036, Note_on_c, 0, 58, 88
1, 18388, Note_off_c, 0, 58, 88
1, 18428, Note_off_c, 0, 41, 91
1, 18432, Note_on_c, 0, 58, 86
1, 18436, Note_on_c, 0, 39, 85
1, 18436, Note_on_c, 0, 55, 83
1, 18440, Note_off_c, 0, 62, 80
1, 18904, Note_off_c, 0, 39, 85
1, 19012, Note_on_c, 0, 39, 74
1, 19048, Note_off_c, 0, 55, 83
1, 19196, Note_on_c, 0, 55, 70
1, 19204, Note_off_c, 0, 58, 86
1, 19380, Note_on_c, 0, 58, 74
1, 19584, Note_on_c, 0, 63, 92
1, 19732, Note_off_c, 0, 63, 92
1, 19736, Note_off_c, 0, 55, 70
1, 19740, Note_off_c, 0, 58, 74
1, 19772, Note_on_c, 0, 58, 92
1, 19772, Note_on_c, 0, 62, 101
1, 19784, Note_on_c, 0, 53, 83
1, 19788, Note_off_c, 0, 39, 74
1, 19968, Note_on_c, 0, 46, 92
1, 20484, Note_off_c, 0, 53, 83
1, 20536, Note_on_c, 0, 53, 74
1, 20536, Note_on_c, 0, 65, 74
1, 20732, Note_on_c, 0, 74, 83
1, 20748, Note_off_c, 0, 58, 92
1, 20924, Note_on_c, 0, 63, 82
1, 20928, Note_off_c, 0, 65, 74
1, 20932, Note_off_c, 0, 53, 74
1, 20936, Note_on_c, 0, 58, 54
1, 21112, Note_on_c, 0, 72, 83
1, 21116, Note_off_c, 0, 58, 54
1, 21116, Note_on_c, 0, 53, 66
1, 21124, Note_off_c, 0, 74, 83
1, 21224, Note_off_c, 0, 62, 101
1, 21304, Note_on_c, 0, 62, 83
1, 21308, Note_off_c, 0, 63, 82
1, 21372, Note_off_c, 0, 46, 92
1, 21484, Note_off_c, 0, 53, 66
1, 21496, Note_off_c, 0, 62, 83
1, 21496, Note_off_c, 0, 72, 83
1, 21496, Note_on_c, 0, 70, 88
1, 21504, Note_on_c, 0, 46, 92
1, 21504, Note_on_c, 0, 53, 83
1, 21512, Note_on_c, 0, 62, 92
1, 21996, Note_off_c, 0, 53, 83
1, 22048, Note_off_c, 0, 62, 92
1, 22068, Note_on_c, 0, 63, 83
1, 22072, Note_on_c, 0, 55, 92
1, 22424, Note_off_c, 0, 63, 83
1, 22452, Note_on_c, 0, 62, 79
1, 22608, Note_off_c, 0, 55, 92
1, 22640, Note_on_c, 0, 58, 79
1, 22760, Note_off_c, 0, 70, 88
1, 22828, Note_on_c, 0, 53, 85
1, 22856, Note_off_c, 0, 58, 79
1, 22940, Note_off_c, 0, 46, 92
1, 23032, Note_on_c, 0, 46, 87
1, 23404, Note_on_c, 0, 65, 70
1, 23408, Note_on_c, 0, 72, 70
1, 23604, Note_on_c, 0, 67, 70
1, 23608, Note_off_c, 0, 65, 70
1, 23608, Note_on_c, 0, 75, 92
1, 23636, Note_off_c, 0, 72, 70
1, 23992, Note_on_c, 0, 65, 66
1, 23996, Note_on_c, 0, 74, 83
1, 24004, Note_off_c, 0, 67, 70
1, 24024, Note_off_c, 0, 75, 92
1, 24156, Note_off_c, 0, 62, 79
1, 24188, Note_on_c, 0, 62, 66
1, 24196, Note_on_c, 0, 70, 74
1, 24204, Note_off_c, 0, 65, 66
1, 24208, Note_off_c, 0, 74, 83
1, 24368, Note_on_c, 0, 65, 77
1, 24388, Note_off_c, 0, 70, 74
1, 24528, Note_off_c, 0, 53, 85
1, 24536, Note_off_c, 0, 46, 87
1, 24544, Note_off_c, 0, 65, 77
1, 24564, Note_off_c, 0, 62, 66
1, 24572, Note_on_c, 0, 65, 62
1, 24576, Note_on_c, 0, 46, 92
1, 24576, Note_on_c, 0, 53, 83
1, 24576, Note_on_c, 0, 62, 92
1, 25068, Note_off_c, 0, 53, 83
1, 25112, Note_off_c, 0, 62, 92
1, 25148, Note_on_c, 0, 58, 63
1, 25148, Note_on_c, 0, 63, 83
1, 25148, Note_on_c, 0, 55, 92
1, 25160, Note_off_c, 0, 65, 62
1, 25524, Note_off_c, 0, 63, 83
1, 25532, Note_off_c, 0, 55, 92
1, 25532, Note_off_c, 0, 58, 63
1, 25532, Note_on_c, 0, 62, 82
1, 25724, Note_on_c, 0, 58, 82
1, 25892, Note_off_c, 0, 46, 92
1, 25908, Note_on_c, 0, 46, 74
1, 25908, Note_on_c, 0, 53, 68
1, 26056, Note_off_c, 0, 62, 82
1, 26100, Note_off_c, 0, 46, 74
1, 26104, Note_on_c, 0, 43, 92
1, 26104, Note_on_c, 0, 55, 70
1, 26104, Note_on_c, 0, 62, 83
1, 26112, Note_off_c, 0, 58, 82
1, 26116, Note_off_c, 0, 53, 68
1, 26304, Note_on_c, 0, 51, 79
1, 26492, Note_on_c, 0, 58, 70
1, 26680, Note_on_c, 0, 60, 83
1, 26712, Note_off_c, 0, 62, 83
1, 26840, Note_off_c, 0, 51, 79
1, 26848, Note_off_c, 0, 60, 83
1, 26860, Note_off_c, 0, 55, 70
1, 26872, Note_on_c, 0, 57, 66
1, 26872, Note_on_c, 0, 60, 88
1, 26876, Note_off_c, 0, 43, 92
1, 26876, Note_on_c, 0, 45, 92
1, 26900, Note_off_c, 0, 58, 70
1, 27068, Note_on_c, 0, 53, 74
1, 27264, Note_off_c, 0, 53, 74
1, 27268, Note_on_c, 0, 65, 83
1, 27452, Note_on_c, 0, 53, 74
1, 27604, Note_off_c, 0, 60, 88
1, 27628, Note_off_c, 0, 57, 66
1, 27632, Note_off_c, 0, 45, 92
1, 27648, Note_on_c, 0, 60, 88
1, 27652, Note_on_c, 0, 39, 92
1, 27652, Note_on_c, 0, 55, 70
1, 27676, Note_off_c, 0, 53, 74
1, 27688, Note_off_c, 0, 65, 83
1, 28140, Note_off_c, 0, 55, 70
1, 28208, Note_on_c, 0, 62, 91
1, 28220, Note_off_c, 0, 60, 88
1, 28364, Note_off_c, 0, 39, 92
1, 28400, Note_on_c, 0, 55, 84
1, 28416, Note_on_c, 0, 38, 92
1, 28564, Note_off_c, 0, 55, 84
1, 28572, Note_on_c, 0, 54, 62
1, 28924, Note_off_c, 0, 54, 62
1, 28968, Note_on_c, 0, 54, 46
1, 28992, Note_on_c, 0, 57, 58
1, 29128, Note_off_c, 0, 62, 91
1, 29152, Note_off_c, 0, 54, 46
1, 29164, Note_off_c, 0, 57, 58
1, 29172, Note_off_c, 0, 38, 92
1, 29180, Note_on_c, 0, 62, 82
1, 29184, Note_on_c, 0, 60, 74
1, 29188, Note_on_c, 0, 43, 92
1, 29188, Note_on_c, 0, 55, 74
1, 29348, Note_on_c, 0, 58, 58
1, 29352, Note_off_c, 0, 60, 74
1, 29856, Note_off_c, 0, 62, 82
1, 29864, Note_off_c, 0, 55, 74
1, 29900, Note_off_c, 0, 43, 92
1, 29904, Note_off_c, 0, 58, 58
1, 29936, Note_on_c, 0, 58, 70
1, 29936, Note_on_c, 0, 62, 74
1, 29940, Note_on_c, 0, 55, 83
1, 29940, Note_on_c, 0, 41, 91
1, 30320, Note_on_c, 0, 67, 82
1, 30684, Note_off_c, 0, 67, 82
1, 30692, Note_off_c, 0, 58, 70
1, 30696, Note_off_c, 0, 62, 74
1, 30700, Note_off_c, 0, 55, 83
1, 30712, Note_on_c, 0, 67, 87
1, 30716, Note_off_c, 0, 41, 91
1, 30716, Note_on_c, 0, 58, 86
1, 30720, Note_on_c, 0, 63, 76
1, 30724, Note_on_c, 0, 39, 85
1, 31092, Note_off_c, 0, 58, 86
1, 31104, Note_on_c, 0, 55, 66
1, 31192, Note_off_c, 0, 39, 85
1, 31240, Note_off_c, 0, 63, 76
1, 31276, Note_off_c, 0, 67, 87
1, 31292, Note_off_c, 0, 55, 66
1, 31292, Note_on_c, 0, 58, 72
1, 31296, Note_on_c, 0, 63, 79
1, 31296, Note_on_c, 0, 70, 83
1, 31300, Note_on_c, 0, 39, 74
1, 31448, Note_off_c, 0, 58, 72
1, 31460, Note_off_c, 0, 70, 83
1, 31464, Note_off_c, 0, 63, 79
1, 31484, Note_on_c, 0, 55, 83
1, 31484, Note_on_c, 0, 58, 50
1, 31644, Note_off_c, 0, 58, 50
1, 31644, Note_off_c, 0, 55, 83
1, 31668, Note_on_c, 0, 70, 74
1, 31668, Note_on_c, 0, 58, 74
1, 31676, Note_on_c, 0, 63, 92
1, 31676, Note_on_c, 0, 65, 65
1, 31840, Note_off_c, 0, 65, 65
1, 31840, Note_off_c, 0, 58, 74
1, 31844, Note_off_c, 0, 63, 92
1, 31844, Note_off_c, 0, 70, 74
1, 31856, Note_on_c, 0, 58, 54
1, 31856, Note_on_c, 0, 55, 66
1, 32040, Note_off_c, 0, 55, 66
1, 32040, Note_off_c, 0, 58, 54
1, 32060, Note_on_c, 0, 58, 92
1, 32060, Note_on_c, 0, 62, 101
1, 32068, Note_on_c, 0, 53, 83
1, 32076, Note_off_c, 0, 39, 74
1, 32256, Note_on_c, 0, 46, 92
1, 32388, Note_off_c, 0, 53, 83
1, 32440, Note_on_c, 0, 53, 70
1, 32632, Note_on_c, 0, 60, 83
1, 32640, Note_off_c, 0, 62, 101
1, 32828, Note_on_c, 0, 62, 74
1, 33000, Note_off_c, 0, 60, 83
1, 33000, Note_off_c, 0, 58, 92
1, 33008, Note_off_c, 0, 62, 74
1, 33016, Note_on_c, 0, 58, 70
1, 33024, Note_on_c, 0, 55, 83
1, 33024, Note_on_c, 0, 63, 86
1, 33032, Note_off_c, 0, 53, 70
1, 33368, Note_off_c, 0, 63, 86
1, 33384, Note_off_c, 0, 55, 83
1, 33384, Note_off_c, 0, 58, 70
1, 33404, Note_on_c, 0, 58, 66
1, 33408, Note_on_c, 0, 55, 74
1, 33408, Note_on_c, 0, 63, 101
1, 33660, Note_off_c, 0, 46, 92
1, 33776, Note_off_c, 0, 55, 74
1, 33780, Note_off_c, 0, 63, 101
1, 33788, Note_off_c, 0, 58, 66
1, 33792, Note_on_c, 0, 57, 101
1, 33792, Note_on_c, 0, 53, 92
1, 33796, Note_on_c, 0, 41, 95
1, 34332, Note_off_c, 0, 53, 92
1, 34352, Note_off_c, 0, 41, 95
1, 34356, Note_on_c, 0, 43, 83
1, 34368, Note_on_c, 0, 58, 74
1, 34372, Note_on_c, 0, 55, 83
1, 34380, Note_off_c, 0, 57, 101
1, 34532, Note_off_c, 0, 55, 83
1, 34552, Note_on_c, 0, 45, 101
1, 34556, Note_on_c, 0, 57, 92
1, 34560, Note_on_c, 0, 60, 101
1, 34572, Note_off_c, 0, 43, 83
1, 34584, Note_off_c, 0, 58, 74
1, 34920, Note_off_c, 0, 60, 101
1, 34928, Note_off_c, 0, 57, 92
1, 34940, Note_on_c, 0, 53, 83
1, 35124, Note_off_c, 0, 53, 83
1, 35124, Note_on_c, 0, 63, 83
1, 35128, Note_on_c, 0, 60, 92
1, 35300, Note_off_c, 0, 45, 101
1, 35304, Note_off_c, 0, 60, 92
1, 35308, Note_off_c, 0, 63, 83
1, 35316, Note_on_c, 0, 62, 92
1, 35320, Note_on_c, 0, 46, 92
1, 35320, Note_on_c, 0, 58, 83
1, 35696, Note_on_c, 0, 53, 58
1, 35808, Note_off_c, 0, 62, 92
1, 35888, Note_on_c, 0, 62, 97
1, 36100, Note_off_c, 0, 58, 83
1, 36216, Note_off_c, 0, 53, 58
1, 36280, Note_on_c, 0, 53, 74
1, 36472, Note_on_c, 0, 67, 97
1, 36548, Note_off_c, 0, 62, 97
1, 36828, Note_off_c, 0, 67, 97
1, 36832, Note_off_c, 0, 53, 74
1, 36840, Note_off_c, 0, 46, 92
1, 36860, Note_on_c, 0, 65, 98
1, 36860, Note_on_c, 0, 60, 83
1, 36864, Note_on_c, 0, 45, 91
1, 37048, Note_on_c, 0, 53, 66
1, 37076, Note_off_c, 0, 60, 83
1, 37228, Note_off_c, 0, 53, 66
1, 37228, Note_on_c, 0, 60, 74
1, 37252, Note_off_c, 0, 65, 98
1, 37388, Note_off_c, 0, 60, 74
1, 37432, Note_on_c, 0, 60, 92
1, 37432, Note_on_c, 0, 63, 91
1, 37760, Note_off_c, 0, 60, 92
1, 37772, Note_off_c, 0, 63, 91
1, 37816, Note_on_c, 0, 53, 66
1, 37816, Note_on_c, 0, 60, 63
1, 37816, Note_on_c, 0, 62, 93
1, 38172, Note_off_c, 0, 60, 63
1, 38196, Note_on_c, 0, 58, 88
1, 38372, Note_off_c, 0, 53, 66
1, 38380, Note_off_c, 0, 62, 93
1, 38380, Note_off_c, 0, 45, 91
1, 38392, Note_on_c, 0, 62, 97
1, 38400, Note_on_c, 0, 53, 74
1, 38400, Note_on_c, 0, 46, 92
1, 38916, Note_off_c, 0, 58, 88
1, 38972, Note_on_c, 0, 58, 62
1, 39124, Note_off_c, 0, 62, 97
1, 39128, Note_off_c, 0, 53, 74
1, 39144, Note_off_c, 0, 46, 92
1, 39152, Note_on_c, 0, 38, 92
1, 39156, Note_on_c, 0, 53, 74
1, 39156, Note_on_c, 0, 62, 101
1, 39420, Note_on_c, 0, 63, 92
1, 39436, Note_off_c, 0, 62, 101
1, 39676, Note_on_c, 0, 65, 97
1, 39728, Note_off_c, 0, 63, 92
1, 39896, Note_off_c, 0, 58, 62
1, 39924, Note_off_c, 0, 53, 74
1, 39928, Note_on_c, 0, 39, 91
1, 39932, Note_off_c, 0, 38, 92
1, 39932, Note_on_c, 0, 60, 92
1, 39932, Note_on_c, 0, 69, 99
1, 39936, Note_off_c, 0, 65, 97
1, 40116, Note_on_c, 0, 67, 85
1, 40132, Note_off_c, 0, 60, 92
1, 40304, Note_on_c, 0, 60, 76
1, 40320, Note_off_c, 0, 67, 85
1, 40500, Note_on_c, 0, 65, 74
1, 40668, Note_off_c, 0, 39, 91
1, 40680, Note_off_c, 0, 65, 74
1, 40696, Note_on_c, 0, 38, 92
1, 40696, Note_on_c, 0, 58, 91
1, 40696, Note_on_c, 0, 65, 97
1, 40704, Note_off_c, 0, 60, 76
1, 40704, Note_off_c, 0, 69, 99
1, 40896, Note_on_c, 0, 53, 79
1, 40904, Note_off_c, 0, 58, 91
1, 41080, Note_on_c, 0, 58, 74
1, 41108, Note_off_c, 0, 65, 97
1, 41272, Note_on_c, 0, 65, 83
1, 41416, Note_off_c, 0, 53, 79
1, 41420, Note_off_c, 0, 38, 92
1, 41452, Note_off_c, 0, 58, 74
1, 41456, Note_off_c, 0, 65, 83
1, 41468, Note_on_c, 0, 39, 94
1, 41472, Note_on_c, 0, 65, 83
1, 41472, Note_on_c, 0, 69, 96
1, 41660, Note_on_c, 0, 58, 58
1, 41772, Note_off_c, 0, 69, 96
1, 41800, Note_off_c, 0, 65, 83
1, 41844, Note_on_c, 0, 70, 83
1, 41936, Note_off_c, 0, 58, 58
1, 42036, Note_on_c, 0, 65, 94
1, 42160, Note_off_c, 0, 39, 94
1, 42228, Note_on_c, 0, 38, 83
1, 42412, Note_on_c, 0, 58, 62
1, 42420, Note_off_c, 0, 70, 83
1, 42428, Note_off_c, 0, 65, 94
1, 42604, Note_on_c, 0, 65, 91
1, 42640, Note_off_c, 0, 58, 62
1, 42792, Note_on_c, 0, 58, 58
1, 42980, Note_off_c, 0, 58, 58
1, 42992, Note_on_c, 0, 43, 83
1, 43004, Note_off_c, 0, 38, 83
1, 43004, Note_on_c, 0, 58, 86
1, 43004, Note_on_c, 0, 62, 93
1, 43024, Note_off_c, 0, 65, 91
1, 43580, Note_on_c, 0, 53, 74
1, 43632, Note_off_c, 0, 62, 93
1, 43732, Note_off_c, 0, 58, 86
1, 43772, Note_on_c, 0, 40, 92
1, 43776, Note_on_c, 0, 55, 78
1, 43776, Note_on_c, 0, 60, 83
1, 43784, Note_off_c, 0, 43, 83
1, 43788, Note_off_c, 0, 53, 74
1, 44160, Note_on_c, 0, 52, 83
1, 44352, Note_off_c, 0, 40, 92
1, 44352, Note_on_c, 0, 40, 82
1, 44512, Note_off_c, 0, 40, 82
1, 44516, Note_off_c, 0, 55, 78
1, 44524, Note_off_c, 0, 52, 83
1, 44536, Note_on_c, 0, 58, 91
1, 44536, Note_on_c, 0, 41, 101
1, 44536, Note_on_c, 0, 51, 70
1, 44568, Note_off_c, 0, 60, 83
1, 44724, Note_on_c, 0, 53, 74
1, 44748, Note_off_c, 0, 58, 91
1, 44912, Note_on_c, 0, 60, 72
1, 45056, Note_off_c, 0, 53, 74
1, 45084, Note_off_c, 0, 60, 72
1, 45088, Note_off_c, 0, 51, 70
1, 45108, Note_on_c, 0, 62, 74
1, 45112, Note_on_c, 0, 53, 74
1, 45260, Note_off_c, 0, 62, 74
1, 45280, Note_off_c, 0, 53, 74
1, 45304, Note_on_c, 0, 63, 89
1, 45308, Note_on_c, 0, 55, 98
1, 45484, Note_off_c, 0, 41, 101
1, 45496, Note_on_c, 0, 36, 83
1, 45652, Note_off_c, 0, 55, 98
1, 45668, Note_off_c, 0, 63, 89
1, 45680, Note_off_c, 0, 36, 83
1, 45688, Note_on_c, 0, 39, 83
1, 45692, Note_on_c, 0, 58, 92
1, 45700, Note_on_c, 0, 67, 95
1, 45868, Note_on_c, 0, 36, 83
1, 45888, Note_off_c, 0, 39, 83
1, 46044, Note_off_c, 0, 58, 92
1, 46060, Note_off_c, 0, 67, 95
1, 46080, Note_off_c, 0, 36, 83
1, 46080, Note_on_c, 0, 57, 92
1, 46080, Note_on_c, 0, 65, 95
1, 46084, Note_on_c, 0, 41, 95
1, 46392, Note_off_c, 0, 57, 92
1, 46420, Note_off_c, 0, 65, 95
1, 46464, Note_on_c, 0, 57, 66
1, 46468, Note_on_c, 0, 60, 66
1, 46640, Note_off_c, 0, 41, 95
1, 46644, Note_on_c, 0, 43, 83
1, 46644, Note_on_c, 0, 53, 70
1, 46656, Note_off_c, 0, 57, 66
1, 46664, Note_off_c, 0, 60, 66
1, 46788, Note_off_c, 0, 53, 70
1, 46840, Note_on_c, 0, 45, 101
1, 46848, Note_on_c, 0, 57, 92
1, 46852, Note_on_c, 0, 60, 83
1, 46860, Note_off_c, 0, 43, 83
1, 47208, Note_off_c, 0, 60, 83
1, 47208, Note_off_c, 0, 57, 92
1, 47220, Note_on_c, 0, 60, 92
1, 47224, Note_on_c, 0, 63, 74
1, 47420, Note_on_c, 0, 53, 66
1, 47584, Note_off_c, 0, 53, 66
1, 47588, Note_off_c, 0, 45, 101
1, 47600, Note_off_c, 0, 63, 74
1, 47600, Note_off_c, 0, 60, 92
1, 47604, Note_on_c, 0, 62, 92
1, 47608, Note_on_c, 0, 46, 92
1, 47608, Note_on_c, 0, 58, 83
1, 47792, Note_on_c, 0, 53, 62
1, 47936, Note_off_c, 0, 62, 92
1, 47988, Note_on_c, 0, 62, 83
1, 48128, Note_off_c, 0, 46, 92
1, 48168, Note_off_c, 0, 58, 83
1, 48176, Note_on_c, 0, 58, 66
1, 48180, Note_on_c, 0, 65, 74
1, 48188, Note_on_c, 0, 46, 92
1, 48352, Note_off_c, 0, 58, 66
1, 48364, Note_off_c, 0, 53, 62
1, 48372, Note_on_c, 0, 58, 83
1, 48372, Note_on_c, 0, 70, 94
1, 48380, Note_off_c, 0, 62, 83
1, 48708, Note_off_c, 0, 58, 83
1, 48740, Note_off_c, 0, 70, 94
1, 48748, Note_off_c, 0, 65, 74
1, 48764, Note_on_c, 0, 58, 74
1, 48764, Note_on_c, 0, 67, 92
1, 49100, Note_off_c, 0, 46, 92
1, 49144, Note_off_c, 0, 67, 92
1, 49148, Note_on_c, 0, 65, 98
1, 49148, Note_on_c, 0, 57, 83
1, 49152, Note_on_c, 0, 41, 91
1, 49164, Note_off_c, 0, 58, 74
1, 49336, Note_on_c, 0, 53, 66
1, 49364, Note_off_c, 0, 57, 83
1, 49516, Note_off_c, 0, 53, 66
1, 49516, Note_on_c, 0, 60, 74
1, 49540, Note_off_c, 0, 65, 98
1, 49676, Note_off_c, 0, 60, 74
1, 49688, Note_off_c, 0, 41, 91
1, 49720, Note_on_c, 0, 42, 101
1, 49720, Note_on_c, 0, 60, 92
1, 49720, Note_on_c, 0, 63, 91
1, 50100, Note_off_c, 0, 63, 91
1, 50108, Note_off_c, 0, 60, 92
1, 50108, Note_on_c, 0, 62, 70
1, 50296, Note_on_c, 0, 54, 66
1, 50468, Note_off_c, 0, 42, 101
1, 50484, Note_on_c, 0, 57, 74
1, 50484, Note_on_c, 0, 45, 58
1, 50664, Note_off_c, 0, 45, 58
1, 50664, Note_off_c, 0, 62, 70
1, 50668, Note_off_c, 0, 57, 74
1, 50672, Note_on_c, 0, 43, 92
1, 50676, Note_off_c, 0, 54, 66
1, 50676, Note_on_c, 0, 50, 74
1, 50872, Note_on_c, 0, 57, 70
1, 51056, Note_on_c, 0, 58, 74
1, 51380, Note_off_c, 0, 50, 74
1, 51388, Note_off_c, 0, 57, 70
1, 51404, Note_off_c, 0, 58, 74
1, 51440, Note_on_c, 0, 46, 92
1, 51440, Note_on_c, 0, 58, 70
1, 51444, Note_on_c, 0, 62, 101
1, 51448, Note_off_c, 0, 43, 92
1, 51676, Note_off_c, 0, 58, 70
1, 51708, Note_on_c, 0, 60, 74
1, 51708, Note_on_c, 0, 63, 92
1, 51724, Note_off_c, 0, 62, 101
1, 51920, Note_off_c, 0, 60, 74
1, 51960, Note_on_c, 0, 62, 83
1, 51964, Note_on_c, 0, 65, 97
1, 52016, Note_off_c, 0, 63, 92
1, 52180, Note_off_c, 0, 62, 83
1, 52216, Note_on_c, 0, 39, 91
1, 52220, Note_off_c, 0, 46, 92
1, 52220, Note_on_c, 0, 60, 92
1, 52220, Note_on_c, 0, 69, 99
1, 52224, Note_off_c, 0, 65, 97
1, 52404, Note_on_c, 0, 67, 85
1, 52420, Note_off_c, 0, 60, 92
1, 52592, Note_on_c, 0, 60, 76
1, 52608, Note_off_c, 0, 67, 85
1, 52788, Note_on_c, 0, 65, 74
1, 52956, Note_off_c, 0, 39, 91
1, 52968, Note_off_c, 0, 65, 74
1, 52984, Note_on_c, 0, 38, 92
1, 52984, Note_on_c, 0, 58, 91
1, 52984, Note_on_c, 0, 65, 97
1, 52992, Note_off_c, 0, 60, 76
1, 52992, Note_off_c, 0, 69, 99
1, 53184, Note_on_c, 0, 57, 68
1, 53192, Note_off_c, 0, 58, 91
1, 53368, Note_on_c, 0, 58, 74
1, 53396, Note_off_c, 0, 65, 97
1, 53560, Note_on_c, 0, 65, 83
1, 53704, Note_off_c, 0, 57, 68
1, 53708, Note_off_c, 0, 38, 92
1, 53740, Note_off_c, 0, 58, 74
1, 53744, Note_off_c, 0, 65, 83
1, 53756, Note_on_c, 0, 39, 94
1, 53760, Note_on_c, 0, 65, 83
1, 53760, Note_on_c, 0, 69, 96
1, 53948, Note_on_c, 0, 58, 58
1, 54060, Note_off_c, 0, 69, 96
1, 54088, Note_off_c, 0, 65, 83
1, 54132, Note_on_c, 0, 70, 83
1, 54324, Note_on_c, 0, 65, 94
1, 54448, Note_off_c, 0, 39, 94
1, 54516, Note_on_c, 0, 38, 83
1, 54584, Note_off_c, 0, 58, 58
1, 54700, Note_on_c, 0, 58, 76
1, 55216, Note_off_c, 0, 65, 94
1, 55248, Note_off_c, 0, 58, 76
1, 55252, Note_off_c, 0, 70, 83
1, 55280, Note_on_c, 0, 43, 83
1, 55292, Note_off_c, 0, 38, 83
1, 55292, Note_on_c, 0, 58, 86
1, 55292, Note_on_c, 0, 62, 93
1, 55868, Note_on_c, 0, 53, 74
1, 55920, Note_off_c, 0, 62, 93
1, 56020, Note_off_c, 0, 58, 86
1, 56060, Note_on_c, 0, 40, 92
1, 56064, Note_on_c, 0, 60, 83
1, 56068, Note_on_c, 0, 55, 92
1, 56072, Note_off_c, 0, 43, 83
1, 56076, Note_off_c, 0, 53, 74
1, 56448, Note_on_c, 0, 52, 83
1, 56776, Note_off_c, 0, 55, 92
1, 56812, Note_off_c, 0, 52, 83
1, 56816, Note_off_c, 0, 40, 92
1, 56824, Note_on_c, 0, 63, 92
1, 56824, Note_on_c, 0, 44, 97
1, 56824, Note_on_c, 0, 55, 101
1, 56856, Note_off_c, 0, 60, 83
1, 57208, Note_on_c, 0, 62, 83
1, 57240, Note_off_c, 0, 63, 92
1, 57540, Note_off_c, 0, 55, 101
1, 57572, Note_off_c, 0, 44, 97
1, 57584, Note_off_c, 0, 62, 83
1, 57584, Note_on_c, 0, 60, 92
1, 57592, Note_on_c, 0, 53, 83
1, 57600, Note_on_c, 0, 41, 97
1, 57964, Note_off_c, 0, 53, 83
1, 57968, Note_on_c, 0, 58, 74
1, 57972, Note_on_c, 0, 51, 73
1, 58324, Note_off_c, 0, 58, 74
1, 58324, Note_off_c, 0, 60, 92
1, 58348, Note_off_c, 0, 41, 97
1, 58348, Note_on_c, 0, 46, 92
1, 58352, Note_off_c, 0, 51, 73
1, 58540, Note_on_c, 0, 53, 74
1, 58736, Note_on_c, 0, 60, 83
1, 58928, Note_on_c, 0, 62, 83
1, 59324, Note_on_c, 0, 65, 62
1, 59504, Note_on_c, 0, 72, 74
1, 59696, Note_on_c, 0, 74, 74
1, 60092, Note_on_c, 0, 77, 58
1, 60108, Note_off_c, 0, 65, 62
1, 60120, Note_off_c, 0, 72, 74
1, 60124, Note_off_c, 0, 74, 74
1, 60272, Note_on_c, 0, 84, 74
1, 60468, Note_on_c, 0, 86, 83
1, 61304, Note_off_c, 0, 77, 58
1, 61316, Note_off_c, 0, 86, 83
1, 61316, Note_off_c, 0, 84, 74
1, 61344, Note_off_c, 0, 53, 74
1, 61348, Note_off_c, 0, 46, 92
1, 61364, Note_off_c, 0, 62, 83
1, 61368, Note_off_c, 0, 60, 83
1, 61432, Note_on_c, 0, 73, 88
1, 61440, Note_on_c, 0, 49, 92
1, 61440, Note_on_c, 0, 56, 83
1, 61448, Note_on_c, 0, 65, 92
1, 61932, Note_off_c, 0, 56, 83
1, 61984, Note_off_c, 0, 65, 92
1, 62004, Note_on_c, 0, 66, 83
1, 62008, Note_on_c, 0, 58, 92
1, 62360, Note_off_c, 0, 66, 83
1, 62388, Note_on_c, 0, 65, 79
1, 62544, Note_off_c, 0, 58, 92
1, 62576, Note_on_c, 0, 61, 79
1, 62696, Note_off_c, 0, 73, 88
1, 62764, Note_on_c, 0, 56, 85
1, 62792, Note_off_c, 0, 61, 79
1, 62876, Note_off_c, 0, 49, 92
1, 62968, Note_on_c, 0, 49, 87
1, 63556, Note_on_c, 0, 68, 62
1, 63740, Note_on_c, 0, 77, 92
1, 63820, Note_off_c, 0, 68, 62
1, 63940, Note_on_c, 0, 66, 66
1, 64100, Note_off_c, 0, 77, 92
1, 64124, Note_off_c, 0, 65, 79
1, 64132, Note_on_c, 0, 75, 92
1, 64196, Note_off_c, 0, 66, 66
1, 64320, Note_on_c, 0, 65, 66
1, 64464, Note_off_c, 0, 56, 85
1, 64472, Note_off_c, 0, 49, 87
1, 64504, Note_off_c, 0, 65, 66
1, 64508, Note_on_c, 0, 68, 62
1, 64512, Note_on_c, 0, 49, 92
1, 64512, Note_on_c, 0, 56, 83
1, 64512, Note_on_c, 0, 65, 92
1, 64540, Note_off_c, 0, 75, 92
1, 65004, Note_off_c, 0, 56, 83
1, 65048, Note_off_c, 0, 65, 92
1, 65084, Note_on_c, 0, 61, 63
1, 65084, Note_on_c, 0, 66, 83
1, 65084, Note_on_c, 0, 58, 92
1, 65096, Note_off_c, 0, 68, 62
1, 65460, Note_off_c, 0, 66, 83
1, 65468, Note_off_c, 0, 58, 92
1, 65468, Note_off_c, 0, 61, 63
1, 65468, Note_on_c, 0, 65, 82
1, 65660, Note_on_c, 0, 61, 82
1, 65828, Note_off_c, 0, 49, 92
1, 65844, Note_on_c, 0, 49, 74
1, 65844, Note_on_c, 0, 56, 68
1, 65992, Note_off_c, 0, 65, 82
1, 66036, Note_off_c, 0, 49, 74
1, 66040, Note_on_c, 0, 46, 92
1, 66040, Note_on_c, 0, 58, 70
1, 66040, Note_on_c, 0, 65, 83
1, 66048, Note_off_c, 0, 61, 82
1, 66052, Note_off_c, 0, 56, 68
1, 66240, Note_on_c, 0, 54, 79
1, 66428, Note_on_c, 0, 61, 70
1, 66616, Note_on_c, 0, 63, 83
1, 66648, Note_off_c, 0, 65, 83
1, 66776, Note_off_c, 0, 54, 79
1, 66784, Note_off_c, 0, 63, 83
1, 66796, Note_off_c, 0, 58, 70
1, 66808, Note_on_c, 0, 60, 66
1, 66808, Note_on_c, 0, 63, 88
1, 66812, Note_off_c, 0, 46, 92
1, 66812, Note_on_c, 0, 48, 92
1, 66836, Note_off_c, 0, 61, 70
1, 67004, Note_on_c, 0, 56, 74
1, 67200, Note_off_c, 0, 56, 74
1, 67204, Note_on_c, 0, 68, 83
1, 67388, Note_on_c, 0, 56, 74
1, 67540, Note_off_c, 0, 63, 88
1, 67564, Note_off_c, 0, 60, 66
1, 67568, Note_off_c, 0, 48, 92
1, 67584, Note_on_c, 0, 63, 88
1, 67588, Note_on_c, 0, 42, 92
1, 67588, Note_on_c, 0, 58, 70
1, 67612, Note_off_c, 0, 56, 74
1, 67624, Note_off_c, 0, 68, 83
1, 68076, Note_off_c, 0, 58, 70
1, 68144, Note_on_c, 0, 65, 91
1, 68156, Note_off_c, 0, 63, 88
1, 68300, Note_off_c, 0, 42, 92
1, 68336, Note_on_c, 0, 58, 84
1, 68352, Note_on_c, 0, 41, 92
1, 68500, Note_off_c, 0, 58, 84
1, 68508, Note_on_c, 0, 57, 62
1, 68860, Note_off_c, 0, 57, 62
1, 68904, Note_on_c, 0, 57, 46
1, 68928, Note_on_c, 0, 60, 58
1, 69064, Note_off_c, 0, 65, 91
1, 69088, Note_off_c, 0, 57, 46
1, 69100, Note_off_c, 0, 60, 58
1, 69108, Note_off_c, 0, 41, 92
1, 69116, Note_on_c, 0, 65, 82
1, 69120, Note_on_c, 0, 63, 74
1, 69124, Note_on_c, 0, 46, 92
1, 69124, Note_on_c, 0, 58, 74
1, 69284, Note_on_c, 0, 61, 58
1, 69288, Note_off_c, 0, 63, 74
1, 69792, Note_off_c, 0, 65, 82
1, 69800, Note_off_c, 0, 58, 74
1, 69836, Note_off_c, 0, 46, 92
1, 69840, Note_off_c, 0, 61, 58
1, 69872, Note_on_c, 0, 61, 70
1, 69872, Note_on_c, 0, 65, 74
1, 69876, Note_on_c, 0, 58, 83
1, 69876, Note_on_c, 0, 44, 91
1, 70256, Note_on_c, 0, 70, 82
1, 70620, Note_off_c, 0, 70, 82
1, 70628, Note_off_c, 0, 61, 70
1, 70632, Note_off_c, 0, 65, 74
1, 70636, Note_off_c, 0, 58, 83
1, 70648, Note_on_c, 0, 58, 87
1, 70652, Note_off_c, 0, 44, 91
1, 70652, Note_on_c, 0, 61, 86
1, 70656, Note_on_c, 0, 66, 76
1, 70660, Note_on_c, 0, 42, 85
1, 71364, Note_off_c, 0, 66, 76
1, 71372, Note_off_c, 0, 58, 87
1, 71388, Note_off_c, 0, 42, 85
1, 71388, Note_off_c, 0, 61, 86
1, 71416, Note_on_c, 0, 46, 74
1, 71420, Note_on_c, 0, 58, 74
1, 71424, Note_on_c, 0, 61, 83
1, 71424, Note_on_c, 0, 66, 70
1, 71596, Note_off_c, 0, 46, 74
1, 71604, Note_on_c, 0, 42, 83
1, 71960, Note_off_c, 0, 61, 83
1, 71960, Note_off_c, 0, 58, 74
1, 71980, Note_off_c, 0, 66, 70
1, 71996, Note_on_c, 0, 61, 92
1, 71996, Note_on_c, 0, 65, 101
1, 72004, Note_on_c, 0, 56, 83
1, 72152, Note_off_c, 0, 42, 83
1, 72192, Note_on_c, 0, 49, 92
1, 72324, Note_off_c, 0, 56, 83
1, 72376, Note_on_c, 0, 56, 70
1, 72568, Note_on_c, 0, 63, 83
1, 72576, Note_off_c, 0, 65, 101
1, 72764, Note_on_c, 0, 65, 74
1, 72936, Note_off_c, 0, 63, 83
1, 72936, Note_off_c, 0, 61, 92
1, 72944, Note_off_c, 0, 65, 74
1, 72952, Note_on_c, 0, 61, 70
1, 72960, Note_on_c, 0, 58, 83
1, 72960, Note_on_c, 0, 66, 86
1, 72968, Note_off_c, 0, 56, 70
1, 73304, Note_off_c, 0, 66, 86
1, 73320, Note_off_c, 0, 58, 83
1, 73320, Note_off_c, 0, 61, 70
1, 73340, Note_on_c, 0, 61, 66
1, 73344, Note_on_c, 0, 58, 74
1, 73344, Note_on_c, 0, 66, 101
1, 73596, Note_off_c, 0, 49, 92
1, 73712, Note_off_c, 0, 58, 74
1, 73716, Note_off_c, 0, 66, 101
1, 73724, Note_off_c, 0, 61, 66
1, 73728, Note_on_c, 0, 60, 101
1, 73728, Note_on_c, 0, 56, 92
1, 73732, Note_on_c, 0, 44, 95
1, 74268, Note_off_c, 0, 56, 92
1, 74288, Note_off_c, 0, 44, 95
1, 74292, Note_on_c, 0, 46, 83
1, 74304, Note_on_c, 0, 61, 74
1, 74308, Note_on_c, 0, 58, 83
1, 74316, Note_off_c, 0, 60, 101
1, 74468, Note_off_c, 0, 58, 83
1, 74488, Note_on_c, 0, 48, 101
1, 74492, Note_on_c, 0, 60, 92
1, 74496, Note_on_c, 0, 63, 101
1, 74508, Note_off_c, 0, 46, 83
1, 74520, Note_off_c, 0, 61, 74
1, 74856, Note_off_c, 0, 63, 101
1, 74864, Note_off_c, 0, 60, 92
1, 74876, Note_on_c, 0, 56, 83
1, 75060, Note_off_c, 0, 56, 83
1, 75060, Note_on_c, 0, 66, 83
1, 75064, Note_on_c, 0, 63, 92
1, 75236, Note_off_c, 0, 48, 101
1, 75240, Note_off_c, 0, 63, 92
1, 75244, Note_off_c, 0, 66, 83
1, 75252, Note_on_c, 0, 65, 92
1, 75256, Note_on_c, 0, 49, 92
1, 75256, Note_on_c, 0, 61, 83
1, 75632, Note_on_c, 0, 56, 58
1, 75744, Note_off_c, 0, 65, 92
1, 75824, Note_on_c, 0, 65, 97
1, 76036, Note_off_c, 0, 61, 83
1, 76152, Note_off_c, 0, 56, 58
1, 76216, Note_on_c, 0, 56, 74
1, 76408, Note_on_c, 0, 70, 97
1, 76484, Note_off_c, 0, 65, 97
1, 76764, Note_off_c, 0, 70, 97
1, 76768, Note_off_c, 0, 56, 74
1, 76776, Note_off_c, 0, 49, 92
1, 76796, Note_on_c, 0, 68, 98
1, 76796, Note_on_c, 0, 63, 83
1, 76800, Note_on_c, 0, 44, 91
1, 76984, Note_on_c, 0, 56, 66
1, 77012, Note_off_c, 0, 63, 83
1, 77164, Note_off_c, 0, 56, 66
1, 77164, Note_on_c, 0, 63, 74
1, 77188, Note_off_c, 0, 68, 98
1, 77324, Note_off_c, 0, 63, 74
1, 77368, Note_on_c, 0, 63, 92
1, 77368, Note_on_c, 0, 66, 91
1, 77696, Note_off_c, 0, 63, 92
1, 77708, Note_off_c, 0, 66, 91
1, 77752, Note_on_c, 0, 56, 66
1, 77752, Note_on_c, 0, 63, 63
1, 77752, Note_on_c, 0, 65, 93
1, 78108, Note_off_c, 0, 63, 63
1, 78132, Note_on_c, 0, 61, 88
1, 78308, Note_off_c, 0, 56, 66
1, 78316, Note_off_c, 0, 65, 93
1, 78316, Note_off_c, 0, 44, 91
1, 78328, Note_on_c, 0, 65, 97
1, 78336, Note_on_c, 0, 56, 74
1, 78336, Note_on_c, 0, 49, 92
1, 78852, Note_off_c, 0, 61, 88
1, 78908, Note_on_c, 0, 61, 62
1, 79060, Note_off_c, 0, 65, 97
1, 79064, Note_off_c, 0, 56, 74
1, 79080, Note_off_c, 0, 49, 92
1, 79092, Note_on_c, 0, 56, 74
1, 79092, Note_on_c, 0, 65, 101
1, 79096, Note_on_c, 0, 41, 83
1, 79320, Note_off_c, 0, 41, 83
1, 79356, Note_on_c, 0, 66, 92
1, 79360, Note_on_c, 0, 42, 74
1, 79372, Note_off_c, 0, 65, 101
1, 79568, Note_off_c, 0, 42, 74
1, 79604, Note_on_c, 0, 44, 83
1, 79612, Note_on_c, 0, 68, 97
1, 79664, Note_off_c, 0, 66, 92
1, 79832, Note_off_c, 0, 61, 62
1, 79836, Note_off_c, 0, 44, 83
1, 79860, Note_off_c, 0, 56, 74
1, 79864, Note_on_c, 0, 42, 91
1, 79868, Note_on_c, 0, 63, 92
1, 79868, Note_on_c, 0, 72, 99
1, 79872, Note_off_c, 0, 68, 97
1, 80052, Note_on_c, 0, 70, 85
1, 80068, Note_off_c, 0, 63, 92
1, 80240, Note_on_c, 0, 63, 76
1, 80256, Note_off_c, 0, 70, 85
1, 80436, Note_on_c, 0, 68, 74
1, 80604, Note_off_c, 0, 42, 91
1, 80616, Note_off_c, 0, 68, 74
1, 80632, Note_on_c, 0, 41, 92
1, 80632, Note_on_c, 0, 61, 91
1, 80632, Note_on_c, 0, 68, 97
1, 80640, Note_off_c, 0, 63, 76
1, 80640, Note_off_c, 0, 72, 99
1, 80832, Note_on_c, 0, 56, 79
1, 80840, Note_off_c, 0, 61, 91
1, 81016, Note_on_c, 0, 61, 74
1, 81044, Note_off_c, 0, 68, 97
1, 81208, Note_on_c, 0, 68, 83
1, 81352, Note_off_c, 0, 56, 79
1, 81356, Note_off_c, 0, 41, 92
1, 81388, Note_off_c, 0, 61, 74
1, 81392, Note_off_c, 0, 68, 83
1, 81404, Note_on_c, 0, 42, 94
1, 81408, Note_on_c, 0, 68, 83
1, 81408, Note_on_c, 0, 72, 96
1, 81596, Note_on_c, 0, 61, 58
1, 81708, Note_off_c, 0, 72, 96
1, 81736, Note_off_c, 0, 68, 83
1, 81780, Note_on_c, 0, 73, 83
1, 81872, Note_off_c, 0, 61, 58
1, 81972, Note_on_c, 0, 68, 94
1, 82096, Note_off_c, 0, 42, 94
1, 82164, Note_on_c, 0, 41, 83
1, 82348, Note_on_c, 0, 61, 62
1, 82356, Note_off_c, 0, 73, 83
1, 82364, Note_off_c, 0, 68, 94
1, 82540, Note_on_c, 0, 68, 91
1, 82576, Note_off_c, 0, 61, 62
1, 82728, Note_on_c, 0, 61, 58
1, 82916, Note_off_c, 0, 61, 58
1, 82928, Note_on_c, 0, 46, 83
1, 82940, Note_off_c, 0, 41, 83
1, 82940, Note_on_c, 0, 61, 86
1, 82940, Note_on_c, 0, 65, 93
1, 82960, Note_off_c, 0, 68, 91
1, 83516, Note_on_c, 0, 56, 74
1, 83568, Note_off_c, 0, 65, 93
1, 83668, Note_off_c, 0, 61, 86
1, 83708, Note_on_c, 0, 39, 92
1, 83712, Note_on_c, 0, 58, 78
1, 83712, Note_on_c, 0, 63, 83
1, 83720, Note_off_c, 0, 46, 83
1, 83724, Note_off_c, 0, 56, 74
1, 84096, Note_on_c, 0, 55, 83
1, 84288, Note_off_c, 0, 39, 92
1, 84288, Note_on_c, 0, 46, 82
1, 84448, Note_off_c, 0, 46, 82
1, 84452, Note_off_c, 0, 58, 78
1, 84460, Note_off_c, 0, 55, 83
1, 84472, Note_on_c, 0, 61, 91
1, 84472, Note_on_c, 0, 44, 101
1, 84472, Note_on_c, 0, 54, 70
1, 84504, Note_off_c, 0, 63, 83
1, 84660, Note_on_c, 0, 56, 74
1, 84684, Note_off_c, 0, 61, 91
1, 84848, Note_on_c, 0, 63, 72
1, 84992, Note_off_c, 0, 56, 74
1, 85020, Note_off_c, 0, 63, 72
1, 85024, Note_off_c, 0, 54, 70
1, 85044, Note_on_c, 0, 65, 74
1, 85048, Note_on_c, 0, 56, 74
1, 85196, Note_off_c, 0, 65, 74
1, 85216, Note_off_c, 0, 56, 74
1, 85220, Note_off_c, 0, 44, 101
1, 85240, Note_on_c, 0, 66, 89
1, 85244, Note_on_c, 0, 58, 98
1, 85248, Note_on_c, 0, 44, 83
1, 85420, Note_off_c, 0, 44, 83
1, 85424, Note_on_c, 0, 46, 70
1, 85584, Note_off_c, 0, 46, 70
1, 85588, Note_off_c, 0, 58, 98
1, 85604, Note_off_c, 0, 66, 89
1, 85616, Note_on_c, 0, 49, 83
1, 85628, Note_on_c, 0, 61, 92
1, 85636, Note_on_c, 0, 70, 95
1, 85768, Note_off_c, 0, 49, 83
1, 85800, Note_on_c, 0, 44, 83
1, 85980, Note_off_c, 0, 61, 92
1, 85988, Note_off_c, 0, 44, 83
1, 85996, Note_off_c, 0, 70, 95
1, 86016, Note_on_c, 0, 60, 92
1, 86016, Note_on_c, 0, 68, 95
1, 86020, Note_on_c, 0, 44, 95
1, 86328, Note_off_c, 0, 60, 92
1, 86356, Note_off_c, 0, 68, 95
1, 86400, Note_on_c, 0, 60, 66
1, 86404, Note_on_c, 0, 63, 66
1, 86580, Note_on_c, 0, 56, 70
1, 86592, Note_off_c, 0, 60, 66
1, 86600, Note_off_c, 0, 63, 66
1, 86724, Note_off_c, 0, 56, 70
1, 86784, Note_on_c, 0, 60, 92
1, 86788, Note_on_c, 0, 63, 83
1, 87136, Note_off_c, 0, 44, 95
1, 87144, Note_off_c, 0, 63, 83
1, 87144, Note_off_c, 0, 60, 92
1, 87156, Note_on_c, 0, 63, 92
1, 87160, Note_on_c, 0, 44, 83
1, 87160, Note_on_c, 0, 66, 74
1, 87336, Note_off_c, 0, 44, 83
1, 87356, Note_on_c, 0, 56, 66
1, 87360, Note_on_c, 0, 48, 83
1, 87520, Note_off_c, 0, 56, 66
1, 87536, Note_off_c, 0, 48, 83
1, 87536, Note_off_c, 0, 66, 74
1, 87536, Note_off_c, 0, 63, 92
1, 87540, Note_on_c, 0, 65, 92
1, 87544, Note_on_c, 0, 49, 92
1, 87544, Note_on_c, 0, 61, 83
1, 87728, Note_on_c, 0, 56, 62
1, 87872, Note_off_c, 0, 65, 92
1, 87924, Note_on_c, 0, 65, 83
1, 88064, Note_off_c, 0, 49, 92
1, 88104, Note_off_c, 0, 61, 83
1, 88112, Note_on_c, 0, 61, 66
1, 88116, Note_on_c, 0, 68, 74
1, 88124, Note_on_c, 0, 49, 92
1, 88288, Note_off_c, 0, 61, 66
1, 88300, Note_off_c, 0, 56, 62
1, 88308, Note_on_c, 0, 61, 83
1, 88308, Note_on_c, 0, 73, 94
1, 88316, Note_off_c, 0, 65, 83
1, 88644, Note_off_c, 0, 61, 83
1, 88676, Note_off_c, 0, 73, 94
1, 88684, Note_off_c, 0, 68, 74
1, 88700, Note_on_c, 0, 61, 74
1, 88700, Note_on_c, 0, 70, 92
1, 89036, Note_off_c, 0, 49, 92
1, 89080, Note_off_c, 0, 70, 92
1, 89084, Note_on_c, 0, 68, 98
1, 89084, Note_on_c, 0, 60, 83
1, 89088, Note_on_c, 0, 48, 91
1, 89100, Note_off_c, 0, 61, 74
1, 89272, Note_on_c, 0, 56, 66
1, 89300, Note_off_c, 0, 60, 83
1, 89452, Note_off_c, 0, 56, 66
1, 89452, Note_on_c, 0, 63, 74
1, 89476, Note_off_c, 0, 68, 98
1, 89612, Note_off_c, 0, 63, 74
1, 89624, Note_off_c, 0, 48, 91
1, 89656, Note_on_c, 0, 63, 92
1, 89656, Note_on_c, 0, 66, 91
1, 89660, Note_on_c, 0, 48, 80
1, 89824, Note_off_c, 0, 48, 80
1, 89856, Note_on_c, 0, 45, 101
1, 90036, Note_off_c, 0, 66, 91
1, 90044, Note_off_c, 0, 63, 92
1, 90044, Note_on_c, 0, 65, 70
1, 90232, Note_on_c, 0, 57, 66
1, 90384, Note_off_c, 0, 45, 101
1, 90420, Note_on_c, 0, 60, 74
1, 90420, Note_on_c, 0, 45, 58
1, 90600, Note_off_c, 0, 45, 58
1, 90600, Note_off_c, 0, 65, 70
1, 90604, Note_off_c, 0, 60, 74
1, 90608, Note_on_c, 0, 46, 92
1, 90612, Note_off_c, 0, 57, 66
1, 90612, Note_on_c, 0, 53, 74
1, 90808, Note_on_c, 0, 60, 70
1, 90992, Note_on_c, 0, 61, 74
1, 91316, Note_off_c, 0, 53, 74
1, 91324, Note_off_c, 0, 60, 70
1, 91340, Note_off_c, 0, 61, 74
1, 91376, Note_on_c, 0, 44, 92
1, 91376, Note_on_c, 0, 61, 70
1, 91380, Note_on_c, 0, 65, 101
1, 91384, Note_off_c, 0, 46, 92
1, 91612, Note_off_c, 0, 61, 70
1, 91644, Note_on_c, 0, 63, 74
1, 91644, Note_on_c, 0, 66, 92
1, 91660, Note_off_c, 0, 65, 101
1, 91856, Note_off_c, 0, 63, 74
1, 91896, Note_on_c, 0, 65, 83
1, 91900, Note_on_c, 0, 68, 97
1, 91952, Note_off_c, 0, 66, 92
1, 92116, Note_off_c, 0, 65, 83
1, 92152, Note_on_c, 0, 42, 91
1, 92156, Note_off_c, 0, 44, 92
1, 92156, Note_on_c, 0, 63, 92
1, 92156, Note_on_c, 0, 72, 99
1, 92160, Note_off_c, 0, 68, 97
1, 92340, Note_on_c, 0, 70, 85
1, 92356, Note_off_c, 0, 63, 92
1, 92528, Note_on_c, 0, 63, 76
1, 92544, Note_off_c, 0, 70, 85
1, 92724, Note_on_c, 0, 68, 74
1, 92892, Note_off_c, 0, 42, 91
1, 92904, Note_off_c, 0, 68, 74
1, 92920, Note_on_c, 0, 41, 92
1, 92920, Note_on_c, 0, 61, 91
1, 92920, Note_on_c, 0, 68, 97
1, 92928, Note_off_c, 0, 63, 76
1, 92928, Note_off_c, 0, 72, 99
1, 93120, Note_on_c, 0, 60, 68
1, 93128, Note_off_c, 0, 61, 91
1, 93304, Note_on_c, 0, 61, 74
1, 93332, Note_off_c, 0, 68, 97
1, 93496, Note_on_c, 0, 68, 83
1, 93640, Note_off_c, 0, 60, 68
1, 93644, Note_off_c, 0, 41, 92
1, 93676, Note_off_c, 0, 61, 74
1, 93680, Note_off_c, 0, 68, 83
1, 93692, Note_on_c, 0, 42, 94
1, 93696, Note_on_c, 0, 68, 83
1, 93696, Note_on_c, 0, 72, 96
1, 93884, Note_on_c, 0, 61, 58
1, 93996, Note_off_c, 0, 72, 96
1, 94024, Note_off_c, 0, 68, 83
1, 94068, Note_on_c, 0, 73, 83
1, 94260, Note_on_c, 0, 68, 94
1, 94384, Note_off_c, 0, 42, 94
1, 94452, Note_on_c, 0, 41, 83
1, 94520, Note_off_c, 0, 61, 58
1, 94636, Note_on_c, 0, 61, 76
1, 95152, Note_off_c, 0, 68, 94
1, 95184, Note_off_c, 0, 61, 76
1, 95188, Note_off_c, 0, 73, 83
1, 95216, Note_on_c, 0, 46, 83
1, 95228, Note_off_c, 0, 41, 83
1, 95228, Note_on_c, 0, 61, 86
1, 95228, Note_on_c, 0, 65, 93
1, 95804, Note_on_c, 0, 56, 74
1, 95856, Note_off_c, 0, 65, 93
1, 95956, Note_off_c, 0, 61, 86
1, 95996, Note_on_c, 0, 39, 92
1, 96000, Note_on_c, 0, 63, 83
1, 96004, Note_on_c, 0, 58, 92
1, 96008, Note_off_c, 0, 46, 83
1, 96012, Note_off_c, 0, 56, 74
1, 96384, Note_on_c, 0, 55, 83
1, 96712, Note_off_c, 0, 58, 92
1, 96748, Note_off_c, 0, 55, 83
1, 96752, Note_off_c, 0, 39, 92
1, 96760, Note_on_c, 0, 66, 92
1, 96760, Note_on_c, 0, 47, 97
1, 96760, Note_on_c, 0, 58, 101
1, 96792, Note_off_c, 0, 63, 83
1, 97144, Note_on_c, 0, 65, 83
1, 97176, Note_off_c, 0, 66, 92
1, 97476, Note_off_c, 0, 58, 101
1, 97508, Note_off_c, 0, 47, 97
1, 97520, Note_off_c, 0, 65, 83
1, 97528, Note_on_c, 0, 54, 87
1, 97528, Note_on_c, 0, 63, 99
1, 97536, Note_on_c, 0, 44, 97
1, 97716, Note_on_c, 0, 61, 74
1, 97912, Note_on_c, 0, 56, 83
1, 97956, Note_off_c, 0, 63, 99
1, 98108, Note_on_c, 0, 63, 92
1, 98284, Note_off_c, 0, 44, 97
1, 98288, Note_off_c, 0, 56, 83
1, 98296, Note_on_c, 0, 69, 88
1, 98300, Note_off_c, 0, 54, 87
1, 98304, Note_off_c, 0, 61, 74
1, 98304, Note_on_c, 0, 45, 92
1, 98304, Note_on_c, 0, 52, 83
1, 98308, Note_off_c, 0, 63, 92
1, 98312, Note_on_c, 0, 61, 92
1, 98796, Note_off_c, 0, 52, 83
1, 98848, Note_off_c, 0, 61, 92
1, 98868, Note_on_c, 0, 62, 83
1, 98872, Note_on_c, 0, 54, 92
1, 99224, Note_off_c, 0, 62, 83
1, 99252, Note_on_c, 0, 61, 79
1, 99408, Note_off_c, 0, 54, 92
1, 99440, Note_on_c, 0, 57, 79
1, 99560, Note_off_c, 0, 69, 88
1, 99628, Note_on_c, 0, 52, 85
1, 99656, Note_off_c, 0, 57, 79
1, 99740, Note_off_c, 0, 45, 92
1, 99832, Note_on_c, 0, 45, 87
1, 100420, Note_on_c, 0, 64, 62
1, 100604, Note_on_c, 0, 73, 92
1, 100684, Note_off_c, 0, 64, 62
1, 100804, Note_on_c, 0, 62, 66
1, 100964, Note_off_c, 0, 73, 92
1, 100988, Note_off_c, 0, 61, 79
1, 100996, Note_on_c, 0, 71, 92
1, 101060, Note_off_c, 0, 62, 66
1, 101184, Note_on_c, 0, 61, 66
1, 101328, Note_off_c, 0, 52, 85
1, 101336, Note_off_c, 0, 45, 87
1, 101368, Note_off_c, 0, 61, 66
1, 101372, Note_on_c, 0, 64, 62
1, 101376, Note_on_c, 0, 45, 92
1, 101376, Note_on_c, 0, 52, 83
1, 101376, Note_on_c, 0, 61, 92
1, 101404, Note_off_c, 0, 71, 92
1, 101868, Note_off_c, 0, 52, 83
1, 101912, Note_off_c, 0, 61, 92
1, 101948, Note_on_c, 0, 57, 63
1, 101948, Note_on_c, 0, 62, 83
1, 101948, Note_on_c, 0, 54, 92
1, 101960, Note_off_c, 0, 64, 62
1, 102092, Note_off_c, 0, 45, 92
1, 102144, Note_on_c, 0, 42, 92
1, 102324, Note_off_c, 0, 62, 83
1, 102332, Note_off_c, 0, 54, 92
1, 102332, Note_off_c, 0, 57, 63
1, 102332, Note_on_c, 0, 61, 82
1, 102524, Note_on_c, 0, 57, 82
1, 102704, Note_off_c, 0, 42, 92
1, 102708, Note_on_c, 0, 45, 74
1, 102708, Note_on_c, 0, 52, 68
1, 102856, Note_off_c, 0, 61, 82
1, 102900, Note_off_c, 0, 45, 74
1, 102904, Note_on_c, 0, 41, 92
1, 102904, Note_on_c, 0, 53, 70
1, 102904, Note_on_c, 0, 62, 83
1, 102912, Note_off_c, 0, 57, 82
1, 102916, Note_off_c, 0, 52, 68
1, 103104, Note_on_c, 0, 50, 79
1, 103292, Note_on_c, 0, 57, 70
1, 103480, Note_on_c, 0, 59, 83
1, 103512, Note_off_c, 0, 62, 83
1, 103640, Note_off_c, 0, 50, 79
1, 103648, Note_off_c, 0, 59, 83
1, 103660, Note_off_c, 0, 53, 70
1, 103672, Note_on_c, 0, 59, 66
1, 103672, Note_on_c, 0, 62, 88
1, 103700, Note_off_c, 0, 57, 70
1, 103868, Note_on_c, 0, 53, 74
1, 104024, Note_off_c, 0, 62, 88
1, 104048, Note_off_c, 0, 59, 66
1, 104056, Note_off_c, 0, 41, 92
1, 104064, Note_off_c, 0, 53, 74
1, 104064, Note_on_c, 0, 40, 92
1, 104064, Note_on_c, 0, 56, 92
1, 104064, Note_on_c, 0, 62, 83
1, 104408, Note_off_c, 0, 62, 83
1, 104420, Note_off_c, 0, 56, 92
1, 104424, Note_off_c, 0, 40, 92
1, 104448, Note_on_c, 0, 38, 92
1, 104448, Note_on_c, 0, 59, 88
1, 104452, Note_on_c, 0, 54, 70
1, 104940, Note_off_c, 0, 54, 70
1, 105028, Note_on_c, 0, 54, 66
1, 105160, Note_off_c, 0, 38, 92
1, 105180, Note_off_c, 0, 59, 88
1, 105204, Note_off_c, 0, 54, 66
1, 105216, Note_on_c, 0, 37, 92
1, 105216, Note_on_c, 0, 61, 96
1, 105400, Note_on_c, 0, 56, 58
1, 105600, Note_on_c, 0, 53, 83
1, 105948, Note_off_c, 0, 61, 96
1, 105968, Note_off_c, 0, 53, 83
1, 105972, Note_off_c, 0, 37, 92
1, 105980, Note_off_c, 0, 56, 58
1, 105980, Note_on_c, 0, 61, 82
1, 105984, Note_on_c, 0, 59, 74
1, 105988, Note_on_c, 0, 42, 92
1, 105988, Note_on_c, 0, 54, 74
1, 106148, Note_on_c, 0, 57, 58
1, 106152, Note_off_c, 0, 59, 74
1, 106656, Note_off_c, 0, 61, 82
1, 106664, Note_off_c, 0, 54, 74
1, 106700, Note_off_c, 0, 42, 92
1, 106704, Note_off_c, 0, 57, 58
1, 106736, Note_on_c, 0, 57, 70
1, 106736, Note_on_c, 0, 61, 74
1, 106740, Note_on_c, 0, 64, 83
1, 106740, Note_on_c, 0, 66, 83
1, 106740, Note_on_c, 0, 40, 91
1, 107492, Note_off_c, 0, 57, 70
1, 107496, Note_off_c, 0, 64, 83
1, 107496, Note_off_c, 0, 61, 74
1, 107500, Note_off_c, 0, 66, 83
1, 107516, Note_off_c, 0, 40, 91
1, 107520, Note_on_c, 0, 62, 101
1, 107524, Note_on_c, 0, 45, 83
1, 107524, Note_on_c, 0, 55, 83
1, 107524, Note_on_c, 0, 59, 92
1, 107524, Note_on_c, 0, 66, 70
1, 107524, Note_on_c, 0, 69, 74
1, 108260, Note_off_c, 0, 62, 101
1, 108264, Note_off_c, 0, 59, 92
1, 108272, Note_off_c, 0, 55, 83
1, 108272, Note_off_c, 0, 45, 83
1, 108276, Note_off_c, 0, 69, 74
1, 108276, Note_off_c, 0, 66, 70
1, 108288, Note_on_c, 0, 45, 62
1, 108288, Note_on_c, 0, 59, 58
1, 108288, Note_on_c, 0, 62, 101
1, 108288, Note_on_c, 0, 66, 92
1, 108292, Note_on_c, 0, 55, 70
1, 108292, Note_on_c, 0, 69, 83
1, 108976, Note_off_c, 0, 55, 70
1, 108980, Note_off_c, 0, 45, 62
1, 108996, Note_off_c, 0, 59, 58
1, 109000, Note_off_c, 0, 69, 83
1, 109004, Note_off_c, 0, 62, 101
1, 109008, Note_off_c, 0, 66, 92
1, 109040, Note_on_c, 0, 45, 83
1, 109044, Note_on_c, 0, 59, 101
1, 109044, Note_on_c, 0, 62, 101
1, 109044, Note_on_c, 0, 64, 92
1, 109044, Note_on_c, 0, 69, 62
1, 109048, Note_on_c, 0, 55, 83
1, 109148, Note_off_c, 0, 55, 83
1, 109148, Note_off_c, 0, 45, 83
1, 109156, Note_off_c, 0, 69, 62
1, 109160, Note_off_c, 0, 59, 101
1, 109164, Note_off_c, 0, 62, 101
1, 109168, Note_off_c, 0, 64, 92
1, 109628, Note_on_c, 0, 66, 74
1, 109808, Note_off_c, 0, 66, 74
1, 109816, Note_on_c, 0, 62, 70
1, 109824, Note_on_c, 0, 50, 92
1, 109824, Note_on_c, 0, 59, 83
1, 109824, Note_on_c, 0, 67, 86
1, 110168, Note_off_c, 0, 67, 86
1, 110184, Note_off_c, 0, 59, 83
1, 110184, Note_off_c, 0, 62, 70
1, 110204, Note_on_c, 0, 62, 66
1, 110208, Note_on_c, 0, 59, 74
1, 110208, Note_on_c, 0, 67, 101
1, 110564, Note_off_c, 0, 50, 92
1, 110576, Note_off_c, 0, 59, 74
1, 110580, Note_off_c, 0, 67, 101
1, 110588, Note_off_c, 0, 62, 66
1, 110592, Note_on_c, 0, 61, 101
1, 110592, Note_on_c, 0, 64, 92
1, 110596, Note_on_c, 0, 42, 95
1, 110596, Note_on_c, 0, 59, 83
1, 110596, Note_on_c, 0, 69, 70
1, 110600, Note_on_c, 0, 57, 66
1, 111160, Note_on_c, 0, 62, 66
1, 111312, Note_off_c, 0, 59, 83
1, 111316, Note_off_c, 0, 57, 66
1, 111324, Note_off_c, 0, 64, 92
1, 111328, Note_off_c, 0, 69, 70
1, 111332, Note_off_c, 0, 61, 101
1, 111344, Note_on_c, 0, 57, 83
1, 111348, Note_on_c, 0, 45, 74
1, 111372, Note_off_c, 0, 42, 95
1, 111532, Note_off_c, 0, 45, 74
1, 111540, Note_off_c, 0, 62, 66
1, 111540, Note_on_c, 0, 67, 101
1, 111552, Note_on_c, 0, 49, 101
1, 111832, Note_off_c, 0, 57, 83
1, 111924, Note_on_c, 0, 57, 74
1, 112028, Note_off_c, 0, 67, 101
1, 112076, Note_off_c, 0, 49, 101
1, 112112, Note_off_c, 0, 57, 74
1, 112116, Note_on_c, 0, 66, 92
1, 112120, Note_on_c, 0, 50, 92
1, 112120, Note_on_c, 0, 62, 83
1, 112496, Note_on_c, 0, 57, 58
1, 112608, Note_off_c, 0, 66, 92
1, 112688, Note_on_c, 0, 66, 97
1, 112900, Note_off_c, 0, 62, 83
1, 113016, Note_off_c, 0, 57, 58
1, 113080, Note_on_c, 0, 57, 74
1, 113272, Note_on_c, 0, 71, 97
1, 113348, Note_off_c, 0, 66, 97
1, 113628, Note_off_c, 0, 71, 97
1, 113632, Note_off_c, 0, 57, 74
1, 113640, Note_off_c, 0, 50, 92
1, 113660, Note_on_c, 0, 49, 88
1, 113660, Note_on_c, 0, 69, 98
1, 113660, Note_on_c, 0, 64, 83
1, 113848, Note_on_c, 0, 57, 66
1, 113876, Note_off_c, 0, 64, 83
1, 114028, Note_off_c, 0, 57, 66
1, 114028, Note_on_c, 0, 64, 74
1, 114052, Note_off_c, 0, 69, 98
1, 114188, Note_off_c, 0, 64, 74
1, 114232, Note_on_c, 0, 64, 92
1, 114232, Note_on_c, 0, 67, 91
1, 114384, Note_off_c, 0, 49, 88
1, 114428, Note_on_c, 0, 49, 101
1, 114560, Note_off_c, 0, 64, 92
1, 114572, Note_off_c, 0, 67, 91
1, 114616, Note_on_c, 0, 57, 66
1, 114616, Note_on_c, 0, 64, 63
1, 114616, Note_on_c, 0, 66, 93
1, 114972, Note_off_c, 0, 64, 63
1, 114996, Note_on_c, 0, 62, 88
1, 115012, Note_off_c, 0, 49, 101
1, 115012, Note_on_c, 0, 45, 74
1, 115172, Note_off_c, 0, 57, 66
1, 115180, Note_off_c, 0, 45, 74
1, 115180, Note_off_c, 0, 66, 93
1, 115192, Note_on_c, 0, 66, 97
1, 115200, Note_on_c, 0, 57, 74
1, 115200, Note_on_c, 0, 50, 92
1, 115716, Note_off_c, 0, 62, 88
1, 115772, Note_on_c, 0, 62, 62
1, 115924, Note_off_c, 0, 66, 97
1, 115928, Note_off_c, 0, 57, 74
1, 115944, Note_off_c, 0, 50, 92
1, 115956, Note_on_c, 0, 57, 74
1, 115956, Note_on_c, 0, 66, 101
1, 115960, Note_on_c, 0, 38, 83
1, 116184, Note_off_c, 0, 38, 83
1, 116220, Note_on_c, 0, 67, 92
1, 116224, Note_on_c, 0, 40, 74
1, 116236, Note_off_c, 0, 66, 101
1, 116432, Note_off_c, 0, 40, 74
1, 116468, Note_on_c, 0, 42, 83
1, 116476, Note_on_c, 0, 69, 97
1, 116528, Note_off_c, 0, 67, 92
1, 116696, Note_off_c, 0, 62, 62
1, 116700, Note_off_c, 0, 42, 83
1, 116724, Note_off_c, 0, 57, 74
1, 116728, Note_on_c, 0, 43, 91
1, 116732, Note_on_c, 0, 64, 92
1, 116732, Note_on_c, 0, 73, 99
1, 116736, Note_off_c, 0, 69, 97
1, 116916, Note_on_c, 0, 71, 85
1, 116932, Note_off_c, 0, 64, 92
1, 117104, Note_on_c, 0, 64, 76
1, 117120, Note_off_c, 0, 71, 85
1, 117300, Note_on_c, 0, 69, 74
1, 117468, Note_off_c, 0, 43, 91
1, 117480, Note_off_c, 0, 69, 74
1, 117496, Note_on_c, 0, 42, 92
1, 117496, Note_on_c, 0, 62, 91
1, 117496, Note_on_c, 0, 69, 97
1, 117504, Note_off_c, 0, 64, 76
1, 117504, Note_off_c, 0, 73, 99
1, 117696, Note_on_c, 0, 57, 79
1, 117704, Note_off_c, 0, 62, 91
1, 117880, Note_on_c, 0, 62, 74
1, 117908, Note_off_c, 0, 69, 97
1, 118072, Note_on_c, 0, 69, 83
1, 118216, Note_off_c, 0, 57, 79
1, 118220, Note_off_c, 0, 42, 92
1, 118252, Note_off_c, 0, 62, 74
1, 118256, Note_off_c, 0, 69, 83
1, 118268, Note_on_c, 0, 43, 94
1, 118272, Note_on_c, 0, 69, 83
1, 118272, Note_on_c, 0, 73, 96
1, 118460, Note_on_c, 0, 62, 58
1, 118572, Note_off_c, 0, 73, 96
1, 118600, Note_off_c, 0, 69, 83
1, 118644, Note_on_c, 0, 74, 83
1, 118736, Note_off_c, 0, 62, 58
1, 118836, Note_on_c, 0, 69, 94
1, 118960, Note_off_c, 0, 43, 94
1, 119028, Note_on_c, 0, 42, 83
1, 119212, Note_on_c, 0, 62, 62
1, 119220, Note_off_c, 0, 74, 83
1, 119228, Note_off_c, 0, 69, 94
1, 119404, Note_on_c, 0, 69, 91
1, 119440, Note_off_c, 0, 62, 62
1, 119592, Note_on_c, 0, 62, 58
1, 119780, Note_off_c, 0, 62, 58
1, 119792, Note_on_c, 0, 62, 101
1, 119792, Note_on_c, 0, 66, 92
1, 119792, Note_on_c, 0, 47, 83
1, 119796, Note_on_c, 0, 57, 83
1, 119804, Note_off_c, 0, 42, 83
1, 119824, Note_off_c, 0, 69, 91
1, 120512, Note_off_c, 0, 66, 92
1, 120540, Note_off_c, 0, 57, 83
1, 120544, Note_off_c, 0, 62, 101
1, 120564, Note_on_c, 0, 66, 74
1, 120568, Note_on_c, 0, 62, 83
1, 120568, Note_on_c, 0, 56, 83
1, 120568, Note_on_c, 0, 59, 83
1, 120572, Note_on_c, 0, 40, 92
1, 120584, Note_off_c, 0, 47, 83
1, 120936, Note_on_c, 0, 64, 83
1, 120976, Note_off_c, 0, 62, 83
1, 121152, Note_off_c, 0, 40, 92
1, 121152, Note_on_c, 0, 47, 82
1, 121300, Note_off_c, 0, 64, 83
1, 121312, Note_off_c, 0, 47, 82
1, 121316, Note_off_c, 0, 59, 83
1, 121316, Note_off_c, 0, 56, 83
1, 121332, Note_on_c, 0, 64, 83
1, 121336, Note_off_c, 0, 66, 74
1, 121336, Note_on_c, 0, 62, 91
1, 121336, Note_on_c, 0, 45, 101
1, 121336, Note_on_c, 0, 55, 70
1, 121524, Note_on_c, 0, 61, 56
1, 121548, Note_off_c, 0, 62, 91
1, 121712, Note_on_c, 0, 57, 72
1, 121856, Note_off_c, 0, 61, 56
1, 121884, Note_off_c, 0, 57, 72
1, 121888, Note_off_c, 0, 55, 70
1, 121900, Note_off_c, 0, 64, 83
1, 121908, Note_on_c, 0, 66, 74
1, 121912, Note_on_c, 0, 57, 74
1, 122060, Note_off_c, 0, 66, 74
1, 122080, Note_off_c, 0, 57, 74
1, 122084, Note_off_c, 0, 45, 101
1, 122104, Note_on_c, 0, 67, 89
1, 122108, Note_on_c, 0, 59, 98
1, 122112, Note_on_c, 0, 45, 83
1, 122284, Note_off_c, 0, 45, 83
1, 122288, Note_on_c, 0, 47, 70
1, 122448, Note_off_c, 0, 47, 70
1, 122452, Note_off_c, 0, 59, 98
1, 122468, Note_off_c, 0, 67, 89
1, 122480, Note_on_c, 0, 50, 83
1, 122492, Note_on_c, 0, 62, 92
1, 122500, Note_on_c, 0, 71, 95
1, 122632, Note_off_c, 0, 50, 83
1, 122664, Note_on_c, 0, 45, 83
1, 122844, Note_off_c, 0, 62, 92
1, 122852, Note_off_c, 0, 45, 83
1, 122860, Note_off_c, 0, 71, 95
1, 122880, Note_on_c, 0, 61, 92
1, 122880, Note_on_c, 0, 69, 95
1, 122884, Note_on_c, 0, 45, 95
1, 123192, Note_off_c, 0, 61, 92
1, 123220, Note_off_c, 0, 69, 95
1, 123264, Note_on_c, 0, 61, 66
1, 123268, Note_on_c, 0, 64, 66
1, 123444, Note_on_c, 0, 57, 70
1, 123456, Note_off_c, 0, 61, 66
1, 123464, Note_off_c, 0, 64, 66
1, 123588, Note_off_c, 0, 57, 70
1, 123648, Note_on_c, 0, 61, 92
1, 123652, Note_on_c, 0, 64, 83
1, 124000, Note_off_c, 0, 45, 95
1, 124008, Note_off_c, 0, 64, 83
1, 124008, Note_off_c, 0, 61, 92
1, 124020, Note_on_c, 0, 64, 92
1, 124024, Note_on_c, 0, 45, 83
1, 124024, Note_on_c, 0, 67, 74
1, 124200, Note_off_c, 0, 45, 83
1, 124220, Note_on_c, 0, 57, 66
1, 124224, Note_on_c, 0, 49, 83
1, 124384, Note_off_c, 0, 57, 66
1, 124400, Note_off_c, 0, 49, 83
1, 124400, Note_off_c, 0, 67, 74
1, 124400, Note_off_c, 0, 64, 92
1, 124404, Note_on_c, 0, 66, 92
1, 124408, Note_on_c, 0, 50, 92
1, 124408, Note_on_c, 0, 62, 83
1, 124592, Note_on_c, 0, 57, 62
1, 124736, Note_off_c, 0, 66, 92
1, 124788, Note_on_c, 0, 66, 83
1, 124928, Note_off_c, 0, 50, 92
1, 124968, Note_off_c, 0, 62, 83
1, 124976, Note_on_c, 0, 62, 66
1, 124980, Note_on_c, 0, 69, 74
1, 124988, Note_on_c, 0, 50, 92
1, 125152, Note_off_c, 0, 62, 66
1, 125164, Note_off_c, 0, 57, 62
1, 125172, Note_on_c, 0, 62, 83
1, 125172, Note_on_c, 0, 74, 94
1, 125180, Note_off_c, 0, 66, 83
1, 125508, Note_off_c, 0, 62, 83
1, 125540, Note_off_c, 0, 74, 94
1, 125548, Note_off_c, 0, 69, 74
1, 125564, Note_on_c, 0, 62, 74
1, 125564, Note_on_c, 0, 71, 92
1, 125900, Note_off_c, 0, 50, 92
1, 125944, Note_off_c, 0, 71, 92
1, 125948, Note_off_c, 0, 62, 74
1, 125948, Note_on_c, 0, 69, 98
1, 125948, Note_on_c, 0, 61, 83
1, 125952, Note_on_c, 0, 49, 91
1, 126136, Note_on_c, 0, 57, 66
1, 126164, Note_off_c, 0, 61, 83
1, 126316, Note_off_c, 0, 57, 66
1, 126316, Note_on_c, 0, 64, 74
1, 126340, Note_off_c, 0, 69, 98
1, 126476, Note_off_c, 0, 64, 74
1, 126488, Note_off_c, 0, 49, 91
1, 126520, Note_on_c, 0, 64, 92
1, 126520, Note_on_c, 0, 67, 91
1, 126524, Note_on_c, 0, 49, 80
1, 126688, Note_off_c, 0, 49, 80
1, 126720, Note_on_c, 0, 46, 92
1, 126900, Note_off_c, 0, 67, 91
1, 126908, Note_off_c, 0, 64, 92
1, 126908, Note_on_c, 0, 66, 70
1, 127096, Note_on_c, 0, 58, 66
1, 127104, Note_off_c, 0, 46, 92
1, 127104, Note_on_c, 0, 42, 92
1, 127284, Note_on_c, 0, 61, 74
1, 127432, Note_off_c, 0, 42, 92
1, 127464, Note_off_c, 0, 66, 70
1, 127468, Note_off_c, 0, 61, 74
1, 127472, Note_on_c, 0, 47, 92
1, 127476, Note_off_c, 0, 58, 66
1, 127476, Note_on_c, 0, 54, 74
1, 127672, Note_on_c, 0, 61, 70
1, 127856, Note_on_c, 0, 62, 74
1, 128180, Note_off_c, 0, 54, 74
1, 128188, Note_off_c, 0, 61, 70
1, 128204, Note_off_c, 0, 62, 74
1, 128240, Note_on_c, 0, 45, 92
1, 128240, Note_on_c, 0, 62, 70
1, 128244, Note_on_c, 0, 66, 101
1, 128248, Note_off_c, 0, 47, 92
1, 128476, Note_off_c, 0, 62, 70
1, 128508, Note_on_c, 0, 64, 74
1, 128508, Note_on_c, 0, 67, 92
1, 128524, Note_off_c, 0, 66, 101
1, 128720, Note_off_c, 0, 64, 74
1, 128760, Note_on_c, 0, 66, 83
1, 128764, Note_on_c, 0, 69, 97
1, 128816, Note_off_c, 0, 67, 92
1, 128980, Note_off_c, 0, 66, 83
1, 129016, Note_on_c, 0, 43, 91
1, 129020, Note_off_c, 0, 45, 92
1, 129020, Note_on_c, 0, 64, 92
1, 129020, Note_on_c, 0, 73, 99
1, 129024, Note_off_c, 0, 69, 97
1, 129204, Note_on_c, 0, 71, 85
1, 129220, Note_off_c, 0, 64, 92
1, 129392, Note_on_c, 0, 64, 76
1, 129408, Note_off_c, 0, 71, 85
1, 129588, Note_on_c, 0, 69, 74
1, 129756, Note_off_c, 0, 43, 91
1, 129768, Note_off_c, 0, 69, 74
1, 129784, Note_on_c, 0, 42, 92
1, 129784, Note_on_c, 0, 62, 91
1, 129784, Note_on_c, 0, 69, 97
1, 129792, Note_off_c, 0, 64, 76
1, 129792, Note_off_c, 0, 73, 99
1, 129984, Note_on_c, 0, 61, 68
1, 129992, Note_off_c, 0, 62, 91
1, 130168, Note_on_c, 0, 62, 74
1, 130196, Note_off_c, 0, 69, 97
1, 130360, Note_on_c, 0, 69, 83
1, 130504, Note_off_c, 0, 61, 68
1, 130508, Note_off_c, 0, 42, 92
1, 130540, Note_off_c, 0, 62, 74
1, 130544, Note_off_c, 0, 69, 83
1, 130556, Note_on_c, 0, 43, 94
1, 130560, Note_on_c, 0, 69, 83
1, 130560, Note_on_c, 0, 73, 96
1, 130748, Note_on_c, 0, 62, 58
1, 130860, Note_off_c, 0, 73, 96
1, 130888, Note_off_c, 0, 69, 83
1, 130932, Note_on_c, 0, 74, 83
1, 131124, Note_on_c, 0, 69, 94
1, 131248, Note_off_c, 0, 43, 94
1, 131320, Note_on_c, 0, 42, 83
1, 131384, Note_off_c, 0, 62, 58
1, 131500, Note_on_c, 0, 62, 76
1, 132016, Note_off_c, 0, 69, 94
1, 132048, Note_off_c, 0, 62, 76
1, 132052, Note_off_c, 0, 74, 83
1, 132096, Note_off_c, 0, 42, 83
1, 132096, Note_on_c, 0, 69, 101
1, 132100, Note_on_c, 0, 43, 92
1, 132100, Note_on_c, 0, 65, 70
1, 132100, Note_on_c, 0, 73, 83
1, 132484, Note_on_c, 0, 71, 92
1, 132844, Note_off_c, 0, 65, 70
1, 132844, Note_off_c, 0, 43, 92
1, 132852, Note_off_c, 0, 71, 92
1, 132852, Note_off_c, 0, 69, 101
1, 132860, Note_on_c, 0, 42, 101
1, 132860, Note_on_c, 0, 61, 83
1, 132864, Note_off_c, 0, 73, 83
1, 132868, Note_on_c, 0, 64, 92
1, 132868, Note_on_c, 0, 69, 83
1, 132872, Note_on_c, 0, 66, 83
1, 133220, Note_off_c, 0, 61, 83
1, 133228, Note_off_c, 0, 42, 101
1, 133248, Note_on_c, 0, 62, 74
1, 133252, Note_on_c, 0, 38, 92
1, 133600, Note_off_c, 0, 66, 83
1, 133612, Note_off_c, 0, 38, 92
1, 133616, Note_off_c, 0, 69, 83
1, 133620, Note_off_c, 0, 64, 92
1, 133624, Note_off_c, 0, 62, 74
1, 133628, Note_on_c, 0, 58, 74
1, 133632, Note_on_c, 0, 61, 83
1, 133632, Note_on_c, 0, 66, 84
1, 133636, Note_on_c, 0, 46, 92
1, 133636, Note_on_c, 0, 64, 92
1, 134340, Note_off_c, 0, 46, 92
1, 134380, Note_off_c, 0, 64, 92
1, 134388, Note_off_c, 0, 61, 83
1, 134388, Note_on_c, 0, 47, 101
1, 134388, Note_on_c, 0, 57, 92
1, 134388, Note_on_c, 0, 62, 101
1, 134392, Note_off_c, 0, 66, 84
1, 134396, Note_off_c, 0, 58, 74
1, 134584, Note_on_c, 0, 64, 83
1, 134772, Note_on_c, 0, 66, 101
1, 135084, Note_off_c, 0, 47, 101
1, 135128, Note_off_c, 0, 66, 101
1, 135140, Note_off_c, 0, 62, 101
1, 135152, Note_off_c, 0, 64, 83
1, 135152, Note_off_c, 0, 57, 92
1, 135152, Note_on_c, 0, 40, 83
1, 135164, Note_on_c, 0, 57, 92
1, 135164, Note_on_c, 0, 62, 86
1, 135164, Note_on_c, 0, 66, 93
1, 135792, Note_off_c, 0, 66, 93
1, 135848, Note_off_c, 0, 57, 92
1, 135892, Note_off_c, 0, 62, 86
1, 135900, Note_off_c, 0, 40, 83
1, 135932, Note_on_c, 0, 40, 92
1, 135932, Note_on_c, 0, 56, 83
1, 135936, Note_on_c, 0, 64, 83
1, 135940, Note_on_c, 0, 59, 92
1, 136648, Note_off_c, 0, 59, 92
1, 136668, Note_off_c, 0, 64, 83
1, 136688, Note_off_c, 0, 40, 92
1, 136696, Note_on_c, 0, 67, 92
1, 136696, Note_on_c, 0, 48, 97
1, 136696, Note_on_c, 0, 59, 101
1, 136700, Note_on_c, 0, 62, 83
1, 136708, Note_off_c, 0, 56, 83
1, 137080, Note_on_c, 0, 66, 83
1, 137112, Note_off_c, 0, 67, 92
1, 137412, Note_off_c, 0, 59, 101
1, 137444, Note_off_c, 0, 62, 83
1, 137444, Note_off_c, 0, 48, 97
1, 137456, Note_off_c, 0, 66, 83
1, 137472, Note_on_c, 0, 45, 97
1, 137472, Note_on_c, 0, 59, 83
1, 137472, Note_on_c, 0, 64, 83
1, 137476, Note_on_c, 0, 55, 92
1, 137856, Note_on_c, 0, 62, 74
1, 138220, Note_off_c, 0, 45, 97
1, 138236, Note_off_c, 0, 62, 74
1, 138240, Note_on_c, 0, 47, 83
1, 138276, Note_off_c, 0, 55, 92
1, 138276, Note_off_c, 0, 59, 83
1, 138292, Note_off_c, 0, 64, 83
1, 138440, Note_on_c, 0, 54, 62
1, 138632, Note_on_c, 0, 61, 74
1, 138828, Note_on_c, 0, 62, 83
1, 139000, Note_on_c, 0, 66, 54
1, 139008, Note_on_c, 0, 57, 74
1, 139052, Note_off_c, 0, 47, 83
1, 139056, Note_off_c, 0, 54, 62
1, 139068, Note_off_c, 0, 62, 83
1, 139068, Note_off_c, 0, 61, 74
1, 139200, Note_on_c, 0, 71, 70
1, 139380, Note_on_c, 0, 73, 74
1, 139576, Note_on_c, 0, 74, 83
1, 139688, Note_on_c, 0, 44, 74
1, 139712, Note_on_c, 0, 50, 70
1, 139740, Note_on_c, 0, 59, 78
1, 139756, Note_on_c, 0, 54, 62
1, 139760, Note_off_c, 0, 57, 74
1, 139792, Note_off_c, 0, 66, 54
1, 139796, Note_off_c, 0, 74, 83
1, 139796, Note_off_c, 0, 71, 70
1, 139804, Note_off_c, 0, 73, 74
1, 139936, Note_on_c, 0, 66, 58
1, 140144, Note_on_c, 0, 71, 83
1, 140320, Note_on_c, 0, 78, 50
1, 140536, Note_on_c, 0, 83, 74
1, 141280, Note_off_c, 0, 59, 78
1, 141296, Note_off_c, 0, 50, 70
1, 141300, Note_off_c, 0, 71, 83
1, 141304, Note_off_c, 0, 66, 58
1, 141312, Note_off_c, 0, 54, 62
1, 141312, Note_off_c, 0, 44, 74
1, 141324, Note_off_c, 0, 83, 74
1, 141344, Note_off_c, 0, 78, 50
1, 141880, Note_on_c, 0, 66, 66
1, 142084, Note_on_c, 0, 67, 83
1, 142108, Note_off_c, 0, 66, 66
1, 142456, Note_off_c, 0, 67, 83
1, 142468, Note_on_c, 0, 71, 85
1, 142748, Note_on_c, 0, 59, 62
1, 142800, Note_on_c, 0, 61, 72
1, 142816, Note_on_c, 0, 64, 70
1, 142848, Note_off_c, 0, 71, 85
1, 142848, Note_on_c, 0, 42, 82
1, 142872, Note_on_c, 0, 69, 88
1, 143456, Note_off_c, 0, 64, 70
1, 143600, Note_on_c, 0, 64, 74
1, 143648, Note_off_c, 0, 61, 72
1, 143648, Note_off_c, 0, 59, 62
1, 143800, Note_on_c, 0, 57, 58
1, 143832, Note_off_c, 0, 64, 74
1, 143996, Note_on_c, 0, 61, 83
1, 144020, Note_off_c, 0, 57, 58
1, 144152, Note_off_c, 0, 42, 82
1, 144184, Note_on_c, 0, 62, 66
1, 144224, Note_off_c, 0, 61, 83
1, 144308, Note_off_c, 0, 69, 88
1, 144384, Note_on_c, 0, 43, 76
1, 144384, Note_on_c, 0, 55, 62
1, 144388, Note_on_c, 0, 59, 74
1, 144388, Note_on_c, 0, 66, 73
1, 144404, Note_off_c, 0, 62, 66
1, 144928, Note_off_c, 0, 66, 73
1, 144944, Note_on_c, 0, 66, 54
1, 145136, Note_on_c, 0, 67, 85
1, 145176, Note_off_c, 0, 66, 54
1, 145332, Note_on_c, 0, 57, 66
1, 145524, Note_on_c, 0, 71, 83
1, 145548, Note_off_c, 0, 67, 85
1, 145756, Note_off_c, 0, 43, 76
1, 145868, Note_off_c, 0, 55, 62
1, 145872, Note_off_c, 0, 59, 74
1, 145892, Note_off_c, 0, 57, 66
1, 145900, Note_on_c, 0, 69, 82
1, 145908, Note_off_c, 0, 71, 83
1, 145908, Note_on_c, 0, 59, 70
1, 145908, Note_on_c, 0, 61, 70
1, 145908, Note_on_c, 0, 64, 74
1, 145920, Note_on_c, 0, 42, 75
1, 146248, Note_off_c, 0, 59, 70
1, 146288, Note_on_c, 0, 59, 62
1, 146468, Note_off_c, 0, 61, 70
1, 146488, Note_on_c, 0, 62, 76
1, 146676, Note_on_c, 0, 52, 59
1, 146712, Note_off_c, 0, 62, 76
1, 146872, Note_on_c, 0, 61, 74
1, 146904, Note_off_c, 0, 52, 59
1, 147048, Note_off_c, 0, 59, 62
1, 147068, Note_off_c, 0, 61, 74
1, 147076, Note_on_c, 0, 52, 40
1, 147260, Note_on_c, 0, 59, 74
1, 147264, Note_off_c, 0, 52, 40
1, 147300, Note_off_c, 0, 42, 75
1, 147404, Note_off_c, 0, 69, 82
1, 147428, Note_off_c, 0, 64, 74
1, 147448, Note_off_c, 0, 59, 74
1, 147456, Note_on_c, 0, 43, 75
1, 147456, Note_on_c, 0, 55, 62
1, 147460, Note_on_c, 0, 59, 74
1, 147460, Note_on_c, 0, 66, 73
1, 148000, Note_off_c, 0, 66, 73
1, 148016, Note_on_c, 0, 66, 54
1, 148208, Note_on_c, 0, 67, 85
1, 148248, Note_off_c, 0, 66, 54
1, 148404, Note_on_c, 0, 57, 66
1, 148596, Note_on_c, 0, 71, 83
1, 148620, Note_off_c, 0, 67, 85
1, 148908, Note_off_c, 0, 43, 75
1, 148940, Note_off_c, 0, 55, 62
1, 148944, Note_off_c, 0, 59, 74
1, 148964, Note_off_c, 0, 57, 66
1, 148972, Note_on_c, 0, 69, 82
1, 148980, Note_off_c, 0, 71, 83
1, 148980, Note_on_c, 0, 42, 75
1, 148980, Note_on_c, 0, 59, 70
1, 148980, Note_on_c, 0, 61, 70
1, 148980, Note_on_c, 0, 64, 74
1, 149740, Note_off_c, 0, 61, 70
1, 149756, Note_on_c, 0, 62, 74
1, 149760, Note_off_c, 0, 59, 70
1, 149976, Note_off_c, 0, 62, 74
1, 150012, Note_on_c, 0, 57, 59
1, 150256, Note_off_c, 0, 57, 59
1, 150256, Note_on_c, 0, 62, 70
1, 150340, Note_off_c, 0, 42, 75
1, 150472, Note_off_c, 0, 62, 70
1, 150476, Note_off_c, 0, 69, 82
1, 150484, Note_on_c, 0, 55, 70
1, 150500, Note_off_c, 0, 64, 74
1, 150504, Note_on_c, 0, 59, 83
1, 150504, Note_on_c, 0, 62, 74
1, 150508, Note_on_c, 0, 45, 74
1, 150512, Note_on_c, 0, 66, 74
1, 151984, Note_off_c, 0, 55, 70
1, 152024, Note_off_c, 0, 59, 83
1, 152028, Note_off_c, 0, 62, 74
1, 152064, Note_on_c, 0, 61, 70
1, 152076, Note_on_c, 0, 55, 70
1, 153532, Note_off_c, 0, 61, 70
1, 153536, Note_off_c, 0, 66, 74
1, 153536, Note_off_c, 0, 45, 74
1, 153564, Note_off_c, 0, 55, 70
1, 153600, Note_on_c, 0, 50, 92
1, 153600, Note_on_c, 0, 57, 83
1, 153608, Note_on_c, 0, 66, 92
1, 153760, Note_off_c, 0, 57, 83
1, 153784, Note_on_c, 0, 57, 62
1, 153968, Note_on_c, 0, 64, 83
1, 154144, Note_off_c, 0, 66, 92
1, 154148, Note_off_c, 0, 57, 62
1, 154156, Note_on_c, 0, 59, 66
1, 154156, Note_on_c, 0, 67, 92
1, 154160, Note_off_c, 0, 64, 83
1, 154548, Note_on_c, 0, 66, 79
1, 154712, Note_off_c, 0, 67, 92
1, 154736, Note_on_c, 0, 62, 79
1, 154924, Note_on_c, 0, 57, 85
1, 154952, Note_off_c, 0, 62, 79
1, 155036, Note_off_c, 0, 50, 92
1, 155060, Note_off_c, 0, 59, 66
1, 155128, Note_on_c, 0, 50, 87
1, 155280, Note_off_c, 0, 57, 85
1, 155312, Note_on_c, 0, 57, 59
1, 155504, Note_on_c, 0, 62, 83
1, 155528, Note_off_c, 0, 57, 59
1, 155676, Note_on_c, 0, 69, 70
1, 155696, Note_on_c, 0, 57, 70
1, 155896, Note_on_c, 0, 78, 74
1, 155916, Note_off_c, 0, 69, 70
1, 156092, Note_on_c, 0, 67, 58
1, 156120, Note_off_c, 0, 78, 74
1, 156252, Note_off_c, 0, 66, 79
1, 156280, Note_on_c, 0, 76, 70
1, 156300, Note_off_c, 0, 67, 58
1, 156480, Note_on_c, 0, 66, 50
1, 156484, Note_off_c, 0, 76, 70
1, 156612, Note_off_c, 0, 57, 70
1, 156628, Note_off_c, 0, 62, 83
1, 156632, Note_off_c, 0, 50, 87
1, 156648, Note_off_c, 0, 66, 50
1, 156668, Note_on_c, 0, 69, 62
1, 156672, Note_on_c, 0, 50, 92
1, 156672, Note_on_c, 0, 57, 83
1, 156672, Note_on_c, 0, 74, 66
1, 156672, Note_on_c, 0, 66, 92
1, 156828, Note_off_c, 0, 57, 83
1, 156848, Note_on_c, 0, 57, 70
1, 157040, Note_on_c, 0, 64, 83
1, 157064, Note_off_c, 0, 57, 70
1, 157208, Note_off_c, 0, 66, 92
1, 157224, Note_off_c, 0, 64, 83
1, 157244, Note_on_c, 0, 62, 63
1, 157244, Note_on_c, 0, 67, 83
1, 157244, Note_on_c, 0, 59, 92
1, 157256, Note_off_c, 0, 69, 62
1, 157416, Note_off_c, 0, 74, 66
1, 157620, Note_off_c, 0, 67, 83
1, 157628, Note_off_c, 0, 59, 92
1, 157628, Note_off_c, 0, 62, 63
1, 157628, Note_on_c, 0, 66, 82
1, 157820, Note_on_c, 0, 62, 82
1, 157988, Note_off_c, 0, 50, 92
1, 158004, Note_on_c, 0, 50, 74
1, 158004, Note_on_c, 0, 57, 68
1, 158152, Note_off_c, 0, 66, 82
1, 158180, Note_off_c, 0, 62, 82
1, 158196, Note_off_c, 0, 50, 74
1, 158200, Note_on_c, 0, 47, 92
1, 158200, Note_on_c, 0, 62, 70
1, 158200, Note_on_c, 0, 66, 83
1, 158212, Note_off_c, 0, 57, 68
1, 158400, Note_on_c, 0, 55, 79
1, 158556, Note_off_c, 0, 62, 70
1, 158588, Note_on_c, 0, 62, 70
1, 158776, Note_on_c, 0, 64, 83
1, 158808, Note_off_c, 0, 66, 83
1, 158936, Note_off_c, 0, 55, 79
1, 158944, Note_off_c, 0, 64, 83
1, 158968, Note_on_c, 0, 61, 66
1, 158968, Note_on_c, 0, 64, 88
1, 158972, Note_off_c, 0, 47, 92
1, 158972, Note_on_c, 0, 49, 92
1, 158996, Note_off_c, 0, 62, 70
1, 159164, Note_on_c, 0, 57, 74
1, 159360, Note_off_c, 0, 57, 74
1, 159364, Note_on_c, 0, 69, 91
1, 159548, Note_on_c, 0, 67, 79
1, 159668, Note_on_c, 0, 38, 58
1, 159692, Note_on_c, 0, 54, 54
1, 159700, Note_off_c, 0, 64, 88
1, 159724, Note_off_c, 0, 61, 66
1, 159728, Note_off_c, 0, 49, 92
1, 159728, Note_on_c, 0, 45, 66
1, 159768, Note_on_c, 0, 50, 70
1, 159768, Note_on_c, 0, 57, 74
1, 159772, Note_off_c, 0, 67, 79
1, 159784, Note_off_c, 0, 69, 91
1, 159792, Note_on_c, 0, 62, 66
1, 159800, Note_on_c, 0, 66, 83
1, 162728, Note_off_c, 0, 38, 58
1, 162732, Note_off_c, 0, 50, 70
1, 162732, Note_off_c, 0, 45, 66
1, 162740, Note_off_c, 0, 57, 74
1, 162744, Note_off_c, 0, 62, 66
1, 162744, Note_off_c, 0, 54, 54
1, 162748, Note_off_c, 0, 66, 83
1, 165888, End_track
0, 0, End_of_file